# 3ds Max Wavefront OBJ Exporter v0.97b - (c)2007 guruware
# File Created: 16.02.2016 15:00:26

#
# object LP_S_Rock2_06
#

v  -1.7537 10.8253 6.5647
v  -2.9206 14.6932 0.7200
v  -7.0131 11.3147 3.8139
v  1.9911 6.8223 -0.3554
v  1.2968 8.7130 -6.7441
v  -3.8340 14.2019 -3.2594
v  3.4232 -0.0433 6.3701
v  2.7199 3.9303 4.4328
v  -0.7253 6.0975 10.7147
v  0.1894 -0.0433 13.3660
v  -3.3404 6.3766 9.6216
v  4.8654 -0.0433 2.8427
v  6.4729 -0.0433 -3.8419
v  2.5982 3.9616 -10.8033
v  -0.6137 9.0133 -7.1843
v  5.0510 2.9711 -9.9133
v  7.0131 -0.0433 -11.4401
v  4.6266 -0.0433 -13.3660
v  -4.7423 9.4856 -6.3448
v  -6.5800 7.5784 -1.2153
v  -4.9394 4.3787 -8.9828
v  -5.7780 2.7702 -7.0186
v  -0.4153 -0.0433 -12.6129
v  -4.9713 -0.0433 -11.0404
v  -2.3910 -0.0433 1.1628
v  -4.7597 5.7755 2.7523
# 26 vertices

vn -0.2820 0.6726 0.6842
vn -0.2237 0.7916 0.5686
vn -0.2615 0.7313 0.6300
vn 0.8577 0.4996 0.1214
vn 0.8506 0.5221 0.0621
vn 0.8492 0.5127 0.1263
vn 0.8469 0.4859 0.2162
vn -0.6159 0.7866 0.0443
vn 0.8709 0.3224 0.3710
vn 0.8759 0.4127 0.2498
vn 0.8575 0.3760 0.3511
vn 0.8654 0.3016 0.4000
vn -0.2927 0.5400 0.7892
vn -0.3335 0.3314 0.8826
vn -0.3073 0.4350 0.8464
vn 0.8799 0.4095 0.2411
vn 0.8572 0.5027 0.1116
vn 0.4608 0.6414 -0.6134
vn 0.2647 0.6760 -0.6877
vn 0.2915 0.6704 -0.6824
vn 0.4768 0.6297 -0.6133
vn 0.4839 0.6300 -0.6074
vn 0.4866 0.6322 -0.6029
vn 0.6306 0.7393 -0.2360
vn 0.8502 0.5229 0.0610
vn 0.8503 0.5228 0.0605
vn -0.9190 0.3034 -0.2516
vn -0.9392 0.2400 -0.2457
vn -0.9286 0.2590 -0.2658
vn -0.9120 0.2878 -0.2924
vn -0.9483 0.1593 -0.2744
vn -0.9475 0.1599 -0.2770
vn -0.1892 0.4794 -0.8570
vn -0.1606 0.4990 -0.8516
vn -0.1290 0.4873 -0.8636
vn -0.1939 0.4718 -0.8601
vn -0.1035 0.5584 -0.8231
vn -0.1398 0.5024 -0.8533
vn -0.1143 0.5129 -0.8508
vn 0.2644 0.6808 -0.6831
vn -0.2984 0.4044 -0.8645
vn -0.9470 0.1412 -0.2887
vn -0.8608 -0.4707 0.1936
vn -0.8477 -0.4993 0.1792
vn -0.8829 -0.4206 0.2090
vn -0.8844 -0.4115 0.2200
vn -0.8856 -0.4087 0.2206
vn -0.8879 -0.4035 0.2210
vn 0.0000 -1.0000 -0.0000
vn -0.9029 -0.3851 0.1909
vn -0.8944 -0.3977 0.2049
# 51 vertex normals

vt 2.6073 5.0008 0.0000
vt 2.4377 4.9480 0.0000
vt 2.5703 4.8479 0.0000
vt 2.4772 5.1893 0.0000
vt 2.3015 5.1904 0.0000
vt 2.3513 4.8935 0.0000
vt 2.7136 5.2917 0.0000
vt 2.6221 5.2181 0.0000
vt 2.7496 5.0699 0.0000
vt 2.8852 5.1784 0.0000
vt 2.7546 4.9962 0.0000
vt 2.6248 5.3433 0.0000
vt 2.4599 5.4219 0.0000
vt 2.0181 5.0654 0.0000
vt 2.1801 4.9792 0.0000
vt 2.1812 5.0306 0.0000
vt 2.0143 5.1383 0.0000
vt 1.9272 5.1936 0.0000
vt 1.8940 5.1198 0.0000
vt 2.2801 5.3895 0.0000
vt 2.2721 5.4920 0.0000
vt 2.3021 4.7648 0.0000
vt 2.4490 4.7315 0.0000
vt 2.2472 4.6297 0.0000
vt 2.3060 4.5936 0.0000
vt 1.9037 4.9861 0.0000
vt 2.0511 4.8636 0.0000
vt 2.2024 4.8698 0.0000
vt 1.9221 4.8617 0.0000
vt 2.2070 4.5093 0.0000
vt 2.5343 4.5144 0.0000
vt 2.5612 4.6832 0.0000
vt 3.6152 1.4664 0.0000
vt 3.9407 1.4657 0.0000
vt 3.7766 1.5864 0.0000
vt 2.8616 4.5171 0.0000
vt 2.7446 4.7009 0.0000
vt 4.2820 1.5898 0.0000
vt 4.2743 1.7227 0.0000
vt 4.2123 1.7733 0.0000
vt 4.0211 1.7189 0.0000
vt 4.2662 1.4651 0.0000
vt 3.8590 1.6421 0.0000
# 43 texture coords

g LP_S_Rock2_06
s 1
f 1/1/1 2/2/2 3/3/3 
s 32
f 4/4/4 5/5/5 2/2/6 1/1/7 
s 4
f 2/2/8 6/6/8 3/3/8 
s 32
f 7/7/9 8/8/10 9/9/11 10/10/12 
s 1
f 11/11/13 10/10/14 9/9/15 
s 32
f 8/8/10 4/4/4 1/1/7 9/9/11 
s 1
f 11/11/13 9/9/15 1/1/1 3/3/3 
s 32
f 4/4/4 8/8/10 12/12/16 13/13/17 
f 8/8/10 7/7/9 12/12/16 
s 1
f 14/14/18 15/15/19 5/16/20 16/17/21 
f 17/18/22 18/19/23 14/14/18 16/17/21 
s 8
f 5/16/24 6/6/24 2/2/24 
s 32
f 4/4/4 13/13/17 16/20/25 5/5/5 
f 16/20/25 13/13/17 17/21/26 
s 2
f 6/6/27 19/22/28 20/23/29 3/3/30 
f 19/22/28 21/24/31 22/25/32 20/23/29 
s 16
f 23/26/33 14/14/34 18/19/35 
f 23/26/33 21/27/36 14/14/34 
f 6/6/37 15/15/38 19/28/39 
s 1
f 6/6/40 5/16/20 15/15/19 
s 16
f 23/26/33 24/29/41 21/27/36 
s 2
f 21/24/31 24/30/42 22/25/32 
s 16
f 21/27/36 19/28/39 15/15/38 14/14/34 
s 8
f 22/25/43 24/30/44 25/31/45 26/32/46 
f 20/23/47 26/32/46 3/3/48 
f 20/23/47 22/25/43 26/32/46 
s 4
f 10/33/49 25/34/49 7/35/49 
s 8
f 25/31/45 10/36/50 11/37/51 26/32/46 
f 26/32/46 11/37/51 3/3/48 
s 4
f 23/38/49 18/39/49 17/40/49 13/41/49 
f 24/42/49 23/38/49 13/41/49 12/43/49 
f 25/34/49 24/42/49 12/43/49 7/35/49 
# 16 polygons - 16 triangles

