# 3ds Max Wavefront OBJ Exporter v0.97b - (c)2007 guruware
# File Created: 16.02.2016 15:00:27

#
# object LP_S_Rock2_13
#

v  -16.6767 15.3248 5.2931
v  -11.1243 15.1358 6.1824
v  -13.9214 22.0678 0.1816
v  -18.0520 20.8025 0.6290
v  -5.8849 17.6876 2.2074
v  -2.2048 16.2593 -1.8519
v  -8.7015 20.1202 -2.3577
v  -0.0579 13.5164 5.3565
v  -4.2892 -0.0071 13.1872
v  -6.8889 6.9898 11.0327
v  -12.7317 6.9719 10.3482
v  2.7604 -0.0071 12.4048
v  2.3026 5.8680 10.7078
v  9.4720 -0.0071 11.4248
v  9.9836 4.7369 9.8494
v  13.3232 -0.0071 8.7844
v  4.9740 9.5868 7.8033
v  13.0627 3.7227 1.7116
v  9.2434 7.0807 0.9872
v  -14.8426 1.7932 -8.6451
v  -14.1127 8.3269 -6.5814
v  -6.6297 8.8644 -8.8983
v  -5.7362 -0.0071 -11.5750
v  -1.6001 -0.0071 -11.4562
v  -0.2250 4.3359 -12.6838
v  -13.9407 14.4112 -4.0996
v  -19.3899 9.2087 -4.6406
v  -18.9990 15.8100 -1.4026
v  -0.0733 15.3935 -8.9203
v  7.8603 5.2517 -11.5884
v  13.3953 6.0616 -10.5200
v  14.5666 -0.0071 -8.2677
v  7.8213 -0.0071 -9.8231
v  6.9450 10.9314 -13.1872
v  6.5185 11.0893 -7.0944
v  19.3899 -0.0071 -7.1091
v  -17.9988 8.0868 -0.2098
v  -15.0975 6.4201 6.6236
v  -16.7132 2.9222 -0.1059
v  -18.7854 3.2052 -6.9244
v  -16.8478 -0.0071 -3.8068
v  15.2360 3.5914 -5.7064
v  16.3566 -0.0071 0.8376
v  -11.8494 2.7308 6.2896
v  -10.2382 -0.0071 5.1371
v  0.1265 9.7534 -11.0204
v  -7.1864 14.0398 -6.4430
v  11.7277 6.5086 -5.8142
v  4.1489 11.4894 -0.3866
# 49 vertices

vn -0.1095 0.5712 0.8135
vn 0.0198 0.5929 0.8050
vn -0.0074 0.6541 0.7563
vn -0.1091 0.6284 0.7702
vn 0.4886 0.8562 0.1678
vn 0.5282 0.8419 0.1106
vn 0.4626 0.8721 0.1597
vn 0.1192 0.6115 0.7822
vn 0.1734 0.7089 0.6836
vn 0.4281 0.8802 0.2049
vn 0.0433 0.2949 0.9546
vn -0.0008 0.4180 0.9084
vn -0.1067 0.4233 0.8997
vn 0.1255 0.2869 0.9497
vn 0.1173 0.4354 0.8925
vn 0.3253 0.2662 0.9073
vn 0.2683 0.3320 0.9043
vn 0.5531 0.2082 0.8067
vn 0.1090 0.5621 0.8199
vn 0.7150 0.6706 0.1979
vn 0.7012 0.6881 0.1869
vn 0.6340 0.7584 0.1511
vn 0.6235 0.7708 0.1305
vn -0.2771 0.2987 -0.9132
vn -0.2877 0.3414 -0.8948
vn -0.3147 0.3169 -0.8947
vn -0.3054 0.2467 -0.9197
vn 0.0838 -0.2955 -0.9517
vn 0.0276 -0.2800 -0.9596
vn 0.1363 -0.2947 -0.9458
vn -0.2879 0.4326 -0.8544
vn -0.2889 0.3660 -0.8847
vn -0.3040 0.4414 -0.8442
vn 0.5308 0.8463 0.0460
vn 0.1903 -0.2747 -0.9425
vn 0.2215 -0.2834 -0.9331
vn 0.2209 -0.3034 -0.9269
vn 0.1888 -0.3138 -0.9305
vn 0.1827 -0.2390 -0.9537
vn 0.5867 0.8045 0.0924
vn 0.5739 0.8187 0.0189
vn 0.2227 -0.3011 -0.9272
vn -0.9478 -0.0292 0.3174
vn -0.9277 -0.0525 0.3697
vn -0.9428 0.0445 0.3302
vn -0.9392 -0.1522 0.3079
vn -0.8879 -0.1128 0.4460
vn -0.9542 -0.1413 0.2638
vn -0.9250 -0.2402 0.2943
vn -0.8376 -0.0675 0.5421
vn -0.9339 -0.2405 0.2645
vn -0.9176 -0.2947 0.2666
vn -0.4726 -0.7438 -0.4726
vn -0.3620 -0.8146 -0.4532
vn -0.4054 -0.7890 -0.4616
vn 0.6693 0.7220 0.1754
vn 0.7497 0.6179 0.2370
vn 0.6796 0.7038 0.2071
vn -0.6364 -0.6037 0.4801
vn -0.6469 -0.5930 0.4795
vn -0.6417 -0.5957 0.4830
vn -0.3086 -0.8426 -0.4414
vn -0.6504 -0.5897 0.4788
vn -0.6516 -0.5862 0.4815
vn -0.2810 0.3171 -0.9058
vn -0.3291 0.3078 -0.8927
vn -0.3439 0.2714 -0.8989
vn -0.3467 0.3588 -0.8666
vn -0.3361 0.3079 -0.8901
vn -0.2748 0.4764 -0.8352
vn -0.3246 0.4210 -0.8470
vn 0.6291 0.7610 0.1586
vn 0.5939 0.7914 0.1447
vn 0.5582 0.8175 0.1416
vn 0.8090 0.5002 0.3088
vn 0.6326 0.7659 0.1147
vn -0.2197 0.4032 -0.8883
vn -0.2541 0.4530 -0.8545
vn -0.6537 -0.5854 0.4796
vn -0.6552 -0.5816 0.4821
vn 0.0000 -1.0000 -0.0000
# 81 vertex normals

vt 2.8628 3.4357 0.0000
vt 2.8221 3.5685 0.0000
vt 2.6293 3.4022 0.0000
vt 2.7190 3.3119 0.0000
vt 2.6634 3.6482 0.0000
vt 2.5513 3.7434 0.0000
vt 2.5517 3.5451 0.0000
vt 2.7284 3.8398 0.0000
vt 3.1457 3.9184 0.0000
vt 3.0038 3.7727 0.0000
vt 3.0614 3.6283 0.0000
vt 3.0530 4.0895 0.0000
vt 2.9214 3.9988 0.0000
vt 2.9421 4.2463 0.0000
vt 2.8342 4.1790 0.0000
vt 2.8320 4.3287 0.0000
vt 2.7821 4.0038 0.0000
vt 2.6233 4.2625 0.0000
vt 2.6040 4.1293 0.0000
vt 2.0421 3.3952 0.0000
vt 2.2211 3.4103 0.0000
vt 2.2138 3.6155 0.0000
vt 1.9708 3.6398 0.0000
vt 1.9582 3.7510 0.0000
vt 2.0725 3.7959 0.0000
vt 2.3952 3.4114 0.0000
vt 2.2572 3.2656 0.0000
vt 2.4538 3.2688 0.0000
vt 2.3683 3.7932 0.0000
vt 2.0770 4.0104 0.0000
vt 2.0809 4.1594 0.0000
vt 1.9100 4.1820 0.0000
vt 1.9317 4.0019 0.0000
vt 2.2337 3.9966 0.0000
vt 2.3954 3.9996 0.0000
vt 1.8940 4.3110 0.0000
vt 2.8624 3.2527 0.0000
vt 3.0625 3.3146 0.0000
vt 3.0843 3.5126 0.0000
vt 3.0492 3.1906 0.0000
vt 3.1987 3.3470 0.0000
vt 3.2182 3.1614 0.0000
vt 3.2928 3.2674 0.0000
vt 2.0847 3.2859 0.0000
vt 1.9514 3.2835 0.0000
vt 2.4241 4.3023 0.0000
vt 2.6068 4.3937 0.0000
vt 2.3855 4.4456 0.0000
vt 3.2024 3.5584 0.0000
vt 3.2859 3.8227 0.0000
vt 3.2906 3.5599 0.0000
vt 2.2170 3.8035 0.0000
vt 2.3632 3.5958 0.0000
vt 2.4224 4.1821 0.0000
vt 2.5743 3.9527 0.0000
vt 2.2970 4.2189 0.0000
vt 2.5972 3.2908 0.0000
vt 5.6519 0.6438 0.0000
vt 5.2458 0.1191 0.0000
vt 5.4119 0.0580 0.0000
vt 5.7581 0.6245 0.0000
vt 5.4025 0.6528 0.0000
vt 5.1617 0.2073 0.0000
vt 5.2218 0.6494 0.0000
vt 5.1271 0.4266 0.0000
vt 5.0924 0.6458 0.0000
vt 5.7830 0.1735 0.0000
vt 6.0000 0.3663 0.0000
vt 5.5877 0.0000 0.0000
# 69 texture coords

g LP_S_Rock2_13
s 2
f 1/1/1 2/2/2 3/3/3 4/4/4 
s 4
f 5/5/5 6/6/6 7/7/7 
s 2
f 2/2/2 8/8/8 5/5/9 3/3/3 
s 4
f 7/7/7 3/3/10 5/5/5 
s 2
f 9/9/11 10/10/12 11/11/13 
f 9/9/11 12/12/14 13/13/15 10/10/12 
f 1/1/1 11/11/13 10/10/12 2/2/2 
f 12/12/14 14/14/16 15/15/17 13/13/15 
f 16/16/18 15/15/17 14/14/16 
f 15/15/17 17/17/19 13/13/15 
s 4
f 15/15/20 18/18/21 19/19/22 17/17/23 
s 1
f 20/20/24 21/21/25 22/22/26 23/23/27 
s 2
f 24/24/28 23/23/29 25/25/30 
s 1
f 26/26/31 21/21/25 27/27/32 28/28/33 
s 4
f 7/7/7 6/6/6 29/29/34 
s 2
f 30/30/35 31/31/36 32/32/37 33/33/38 
f 33/33/38 24/24/28 25/25/30 30/30/35 
f 25/25/30 34/34/39 30/30/35 
s 4
f 35/35/40 34/34/41 29/29/34 
s 2
f 30/30/35 34/34/39 31/31/36 
f 31/31/36 36/36/42 32/32/37 
s 4
f 28/37/43 1/1/44 4/4/45 
f 37/38/46 38/39/47 1/1/44 28/37/43 
f 28/37/43 27/40/48 37/38/46 
f 37/38/46 39/41/49 38/39/47 
f 11/11/50 1/1/44 38/39/47 
f 40/42/51 41/43/52 39/41/49 
s 8
f 40/44/53 20/20/54 41/45/55 
s 4
f 40/42/51 39/41/49 37/38/46 27/40/48 
f 42/46/56 18/18/21 43/47/57 36/48/58 
s 1
f 38/39/59 44/49/60 11/11/61 
s 8
f 20/20/54 23/23/62 41/45/55 
s 1
f 9/50/63 44/49/60 45/51/64 
f 40/44/65 27/27/32 21/21/25 20/20/24 
f 22/22/26 46/52/66 25/25/67 23/23/27 
f 29/29/68 34/34/69 46/52/66 
f 34/34/69 25/25/67 46/52/66 
f 7/7/70 29/29/68 47/53/71 
f 29/29/68 46/52/66 22/22/26 47/53/71 
f 22/22/26 21/21/25 26/26/31 47/53/71 
s 4
f 19/19/22 48/54/72 35/35/40 49/55/73 
f 35/35/40 29/29/34 6/6/6 49/55/73 
f 17/17/23 19/19/22 49/55/73 8/8/74 
f 15/15/20 16/16/75 43/47/57 18/18/21 
f 31/56/76 34/34/41 35/35/40 48/54/72 
f 19/19/22 18/18/21 42/46/56 48/54/72 
f 42/46/56 31/56/76 48/54/72 
f 8/8/74 49/55/73 6/6/6 5/5/5 
f 42/46/56 36/48/58 31/56/76 
s 1
f 28/28/33 4/57/77 3/3/78 26/26/31 
f 7/7/70 47/53/71 26/26/31 3/3/78 
f 38/39/59 39/41/79 44/49/60 
f 44/49/60 39/41/79 41/43/80 45/51/64 
f 44/49/60 9/50/63 11/11/61 
s 16
f 24/58/81 14/59/81 12/60/81 23/61/81 
f 14/59/81 24/58/81 33/62/81 16/63/81 
f 33/62/81 32/64/81 43/65/81 16/63/81 
f 36/66/81 43/65/81 32/64/81 
f 23/61/81 45/67/81 41/68/81 
f 9/69/81 45/67/81 12/60/81 
f 23/61/81 12/60/81 45/67/81 
s 2
f 10/10/12 13/13/15 8/8/8 2/2/2 
f 13/13/15 17/17/19 8/8/8 
# 31 polygons - 32 triangles

