# 3ds Max Wavefront OBJ Exporter v0.97b - (c)2007 guruware
# File Created: 16.02.2016 15:00:26

#
# object LP_S_Rock2_09
#

v  4.1469 18.6081 8.3136
v  -2.4563 18.6783 7.5572
v  -2.8907 12.7875 9.5736
v  5.1465 14.9444 10.1308
v  -10.4243 17.3268 5.8957
v  -10.2695 10.5800 8.7368
v  -6.4390 4.4358 10.7854
v  -1.6299 9.9229 10.5038
v  -17.8384 14.5516 4.7515
v  -15.3309 8.6490 7.6318
v  -10.3713 -0.0214 9.2883
v  -15.3506 -0.0214 5.8935
v  10.7526 18.3219 -9.5470
v  13.0053 19.0002 -8.1474
v  13.5543 12.4554 -7.1812
v  11.1134 12.6766 -8.4978
v  21.6117 10.4039 2.2350
v  22.2956 4.6060 3.9438
v  17.5097 3.4800 -1.1563
v  14.3402 7.8761 -5.8443
v  11.1444 29.6996 -8.6372
v  8.9012 31.1914 -4.0347
v  14.2648 28.0882 -4.9716
v  4.2545 29.4838 0.1864
v  11.1907 25.8121 -0.2440
v  19.7781 17.3722 0.1158
v  11.9025 26.3072 -8.8074
v  9.2815 25.0282 -10.3088
v  7.6942 30.4206 -10.3621
v  19.1501 6.3572 7.2305
v  18.1804 -0.0214 9.7896
v  22.6357 -0.0214 5.2374
v  20.5728 -0.0214 3.3397
v  19.7994 12.5429 3.7371
v  8.8599 19.3694 5.6874
v  4.1652 24.8529 4.4394
v  9.5981 10.6872 9.9695
v  14.7200 5.1046 9.7988
v  -11.3094 24.7448 -9.9646
v  -4.3926 21.5029 -10.7854
v  -15.6164 15.1593 -9.5928
v  -17.3075 21.1279 -9.7414
v  1.2027 5.8936 -8.1969
v  -9.0725 -0.0214 -6.7937
v  -12.2288 7.5122 -8.6173
v  -0.7305 11.3477 -9.7554
v  -18.7866 -0.0214 0.7984
v  -17.3350 4.4160 4.2711
v  -20.0899 2.4513 0.2545
v  -18.9111 8.1334 3.1964
v  -20.5872 13.9895 0.8626
v  -22.6357 13.5596 -3.0896
v  -21.7092 7.0245 -1.0058
v  -17.8752 20.7482 0.6598
v  -9.5907 22.7934 2.3826
v  -16.2080 24.6731 -2.6677
v  -19.0519 22.9302 -3.9359
v  -20.4053 20.7746 -6.6915
v  -21.9889 17.6433 -5.1008
v  -20.0979 19.2808 -2.0723
v  -1.0700 24.6687 3.8145
v  3.9459 32.5110 -3.6348
v  0.7536 28.7515 0.4294
v  -6.2616 29.7564 -2.6051
v  -7.9504 26.7849 -0.3203
v  -1.0752 28.5097 -10.3348
v  11.3978 9.2805 -8.0574
v  -8.7537 -0.0214 2.0354
v  18.5144 -0.0214 5.8551
# 69 vertices

vn -0.1209 0.4422 0.8887
vn -0.1813 0.4453 0.8769
vn -0.1766 0.2941 0.9393
vn -0.1630 0.3711 0.9142
vn -0.2740 0.4549 0.8474
vn -0.2636 0.2471 0.9324
vn -0.3140 0.1213 0.9417
vn -0.1726 0.2347 0.9566
vn -0.2913 0.4249 0.8571
vn -0.2691 0.2153 0.9387
vn -0.3356 0.0522 0.9406
vn -0.5559 -0.1622 0.8153
vn -0.7337 -0.1003 0.6720
vn -0.7005 -0.1568 0.6962
vn 0.5245 -0.0385 -0.8505
vn 0.5298 -0.0302 -0.8476
vn 0.4986 -0.1121 -0.8595
vn 0.4643 -0.1084 -0.8790
vn 0.7548 -0.0749 -0.6517
vn 0.7250 -0.1460 -0.6731
vn 0.7474 -0.1424 -0.6489
vn 0.7540 -0.0884 -0.6509
vn 0.3827 0.9172 -0.1108
vn 0.3275 0.9360 -0.1290
vn 0.4952 0.8679 -0.0400
vn 0.3755 0.6754 0.6347
vn 0.3418 0.6713 0.6577
vn 0.4546 0.5799 0.6760
vn 0.5042 0.6030 0.6182
vn 0.7799 0.0349 -0.6249
vn 0.7722 0.0293 -0.6347
vn 0.7945 0.1502 -0.5884
vn 0.8041 0.1640 -0.5714
vn 0.4752 0.5327 0.7003
vn 0.7543 -0.0439 -0.6550
vn 0.4744 0.0744 -0.8772
vn 0.4794 0.0565 -0.8758
vn 0.4572 0.1356 -0.8790
vn 0.4668 0.1481 -0.8719
vn 0.7431 0.2217 0.6314
vn 0.7608 0.2001 0.6174
vn 0.7245 0.1920 0.6620
vn 0.6937 0.2408 0.6789
vn 0.6689 -0.1541 -0.7272
vn 0.7049 -0.1726 -0.6880
vn 0.7836 0.2836 0.5528
vn 0.7970 0.3122 0.5170
vn 0.8084 0.3554 0.4692
vn 0.4120 0.4499 0.7924
vn 0.4167 0.4853 0.7687
vn 0.3621 0.4912 0.7922
vn 0.3900 0.5540 0.7355
vn 0.4238 0.4162 0.8045
vn 0.4129 0.3590 0.8370
vn 0.4282 0.4648 0.7749
vn 0.4071 0.3169 0.8567
vn 0.4202 0.2821 0.8624
vn -0.0825 0.0264 -0.9962
vn -0.0298 -0.0164 -0.9994
vn -0.0433 -0.0818 -0.9957
vn -0.0190 -0.0302 -0.9994
vn 0.0576 -0.2303 -0.9714
vn 0.0022 -0.2344 -0.9721
vn -0.0209 -0.1867 -0.9822
vn 0.0423 -0.1797 -0.9828
vn -0.7745 -0.2128 0.5957
vn -0.7800 -0.1517 0.6072
vn -0.7689 -0.1940 0.6092
vn -0.8033 -0.0704 0.5913
vn -0.8565 0.1410 0.4965
vn -0.8766 0.1771 0.4475
vn -0.8286 -0.0283 0.5592
vn -0.3228 0.5913 0.7390
vn -0.2813 0.5832 0.7621
vn -0.4310 0.8416 -0.3256
vn -0.4272 0.8452 -0.3212
vn -0.4644 0.8126 -0.3522
vn -0.3917 0.8388 -0.3781
vn -0.6302 -0.1431 -0.7631
vn -0.6739 -0.2086 -0.7087
vn -0.6127 -0.2742 -0.7412
vn -0.4719 0.7919 -0.3876
vn -0.5544 -0.4099 -0.7243
vn -0.5505 -0.3750 -0.7459
vn -0.5758 -0.3771 -0.7254
vn -0.6146 -0.1939 -0.7646
vn -0.6108 -0.2995 -0.7329
vn -0.7684 0.4365 0.4681
vn -0.8368 0.3755 0.3985
vn -0.8091 0.1192 0.5755
vn -0.7700 0.5306 0.3544
vn -0.8782 0.4746 0.0601
vn -0.8775 0.3766 0.2968
vn -0.1050 0.6023 0.7913
vn -0.1802 0.6097 0.7719
vn -0.1063 0.7315 0.6735
vn -0.1367 0.7784 0.6127
vn -0.1455 0.7187 0.6799
vn -0.2382 0.7007 0.6725
vn -0.2910 0.6610 0.6917
vn -0.3448 0.8782 -0.3315
vn -0.2732 0.8923 -0.3593
vn -0.3558 0.6878 0.6328
vn 0.0807 -0.1282 -0.9885
vn 0.0789 -0.1589 -0.9841
vn 0.0476 -0.0497 -0.9976
vn -0.0328 0.0796 -0.9963
vn 0.2650 0.9498 -0.1662
vn 0.2416 0.9566 -0.1626
vn 0.0209 0.0191 -0.9996
vn -0.2352 0.9019 -0.3623
vn -0.1973 0.8997 -0.3895
vn 0.7879 0.2052 -0.5805
vn 0.2521 0.7683 0.5883
vn 0.0547 -0.1239 -0.9908
vn 0.5492 -0.1460 -0.8228
vn 0.5204 -0.1202 -0.8454
vn 0.0468 0.0111 0.9988
vn 0.0464 0.0110 0.9989
vn 0.0467 0.0120 0.9988
vn 0.0459 0.0240 0.9987
vn 0.0041 -0.2019 0.9794
vn 0.2450 -0.6283 -0.7384
vn 0.2280 -0.6356 -0.7376
vn 0.1981 -0.6906 -0.6955
vn 0.2150 -0.6741 -0.7067
vn 0.2543 -0.6181 -0.7438
vn -0.0000 -1.0000 -0.0000
vn 0.0341 -0.0350 0.9988
vn -0.0167 -0.3051 0.9522
vn 0.2278 -0.6562 -0.7193
vn -0.6040 0.6489 0.4627
vn -0.5547 -0.4137 -0.7219
vn -0.5512 -0.4457 -0.7053
# 134 vertex normals

vt 1.3751 1.2629 0.0000
vt 1.3570 1.0900 0.0000
vt 1.5073 1.0638 0.0000
vt 1.4693 1.2814 0.0000
vt 1.3463 0.8752 0.0000
vt 1.5304 0.8609 0.0000
vt 1.7076 0.9461 0.0000
vt 1.5807 1.0891 0.0000
vt 1.3609 0.6703 0.0000
vt 1.5402 0.7208 0.0000
vt 1.8060 0.8125 0.0000
vt 1.7470 0.6240 0.0000
vt 0.5745 1.3975 0.0000
vt 0.5950 1.4715 0.0000
vt 0.4242 1.4734 0.0000
vt 0.4375 1.3981 0.0000
vt 0.3168 1.7884 0.0000
vt 0.1334 1.7788 0.0000
vt 0.1576 1.5880 0.0000
vt 0.3042 1.4852 0.0000
vt 0.8337 1.4249 0.0000
vt 0.9422 1.3834 0.0000
vt 0.8995 1.5460 0.0000
vt 1.0522 1.2718 0.0000
vt 1.0787 1.4656 0.0000
vt 0.5485 1.7523 0.0000
vt 0.7782 1.4548 0.0000
vt 1.2698 1.7219 0.0000
vt 0.7238 1.3748 0.0000
vt 0.8137 1.3367 0.0000
vt 1.6717 1.7842 0.0000
vt 1.6551 1.6579 0.0000
vt 1.8396 1.6067 0.0000
vt 1.8079 1.7817 0.0000
vt 0.0000 1.7622 0.0000
vt 0.0226 1.6879 0.0000
vt 1.4908 1.7767 0.0000
vt 1.4531 1.7035 0.0000
vt 1.3178 1.3967 0.0000
vt 1.1946 1.2676 0.0000
vt 1.5711 1.3907 0.0000
vt 1.7099 1.5165 0.0000
vt 0.8335 0.8358 0.0000
vt 0.6902 0.9927 0.0000
vt 0.6074 0.6637 0.0000
vt 0.8392 0.6443 0.0000
vt 0.2791 1.1213 0.0000
vt 0.1195 0.8455 0.0000
vt 0.3496 0.7491 0.0000
vt 0.4226 1.0674 0.0000
vt 1.6909 0.4621 0.0000
vt 1.6055 0.5889 0.0000
vt 1.6109 0.4502 0.0000
vt 1.4884 0.5736 0.0000
vt 1.3061 0.5580 0.0000
vt 1.2538 0.4518 0.0000
vt 1.4637 0.4383 0.0000
vt 1.1695 0.6800 0.0000
vt 1.1939 0.9064 0.0000
vt 1.0440 0.7301 0.0000
vt 1.0295 0.6489 0.0000
vt 0.9677 0.5773 0.0000
vt 0.7684 0.4954 0.0000
vt 0.8503 0.0593 0.0000
vt 0.9184 0.1750 0.0000
vt 0.6281 0.3210 0.0000
vt 0.9856 0.4736 0.0000
vt 0.9812 0.3497 0.0000
vt 1.1369 0.5890 0.0000
vt 1.0923 0.4925 0.0000
vt 1.1889 1.1357 0.0000
vt 0.9548 1.2630 0.0000
vt 1.0705 1.1861 0.0000
vt 1.0274 1.0085 0.0000
vt 1.0958 0.9569 0.0000
vt 0.8251 1.1160 0.0000
vt 0.3541 1.3983 0.0000
vt 3.6326 5.7871 0.0000
vt 3.4821 5.7417 0.0000
vt 3.6159 5.5939 0.0000
vt 4.3560 5.3959 0.0000
vt 4.4222 5.4269 0.0000
vt 4.3245 5.4746 0.0000
vt 4.3471 5.5752 0.0000
vt 3.5386 5.3766 0.0000
vt 3.3565 5.6419 0.0000
vt 0.5038 0.1361 0.0000
vt 0.8026 0.0000 0.0000
# 88 texture coords

g LP_S_Rock2_09
s 1
f 1/1/1 2/2/2 3/3/3 4/4/4 
f 3/3/3 2/2/2 5/5/5 6/6/6 
f 7/7/7 8/8/8 3/3/3 6/6/6 
f 4/4/4 3/3/3 8/8/8 
f 5/5/5 9/9/9 10/10/10 6/6/6 
f 6/6/6 10/10/10 11/11/11 7/7/7 
s 2
f 11/11/12 10/10/13 12/12/14 
f 13/13/15 14/14/16 15/15/17 16/16/18 
s 1
f 17/17/19 18/18/20 19/19/21 20/20/22 
s 8
f 21/21/23 22/22/24 23/23/25 
s 2
f 22/22/26 24/24/27 25/25/28 23/23/29 
s 1
f 26/26/30 14/14/31 27/27/32 23/23/33 
s 2
f 26/28/34 23/23/29 25/25/28 
s 1
f 14/14/31 26/26/30 17/17/19 15/15/35 
s 2
f 27/27/36 28/29/37 29/30/38 21/21/39 
s 4
f 18/31/40 30/32/41 31/33/42 32/34/43 
s 1
f 18/18/20 32/35/44 33/36/45 19/19/21 
s 4
f 30/32/41 18/31/40 17/37/46 34/38/47 
f 26/28/48 34/38/47 17/37/46 
s 2
f 4/4/49 35/39/50 1/1/51 
f 1/1/51 35/39/50 36/40/52 
f 35/39/50 37/41/53 30/32/54 34/38/55 
f 38/42/56 31/33/57 30/32/54 
f 36/40/52 35/39/50 25/25/28 24/24/27 
f 37/41/53 38/42/56 30/32/54 
f 35/39/50 34/38/55 26/28/34 25/25/28 
s 1
f 39/43/58 40/44/59 41/45/60 42/46/61 
f 43/47/62 44/48/63 45/49/64 46/50/65 
s 2
f 47/51/66 12/12/14 48/52/67 49/53/68 
f 50/54/69 51/55/70 52/56/71 53/57/72 
s 1
f 54/58/73 9/9/9 5/5/5 55/59/74 
s 4
f 56/60/75 39/43/76 42/46/77 57/61/78 
s 8
f 58/62/79 42/46/80 41/63/81 
s 4
f 58/62/82 57/61/78 42/46/77 
s 8
f 49/64/83 53/65/84 41/63/81 45/66/85 
f 59/67/86 58/62/79 41/63/81 
f 52/68/87 59/67/86 41/63/81 
s 2
f 54/58/88 60/69/89 51/55/70 9/9/90 
f 54/58/88 57/61/91 60/69/89 
f 58/62/92 59/70/93 57/61/91 
s 8
f 53/65/84 52/68/87 41/63/81 
s 1
f 2/2/2 1/1/1 36/40/94 61/71/95 
f 24/24/96 62/72/97 63/73/98 
f 64/74/99 65/75/100 63/73/98 62/72/97 
s 4
f 39/43/76 56/60/75 64/74/101 66/76/102 
s 1
f 56/60/103 65/75/100 64/74/99 
f 13/13/104 16/16/105 43/47/62 46/50/65 
f 40/44/59 28/29/106 13/13/104 46/50/65 
s 2
f 14/14/16 13/13/15 28/29/37 27/27/36 
s 1
f 66/76/107 40/44/59 39/43/58 
s 8
f 22/22/24 21/21/23 29/30/108 62/72/109 
s 1
f 40/44/59 66/76/107 29/30/110 28/29/106 
s 4
f 62/72/111 29/30/112 66/76/102 64/74/101 
s 1
f 55/59/74 5/5/5 2/2/2 61/71/95 
f 45/49/64 41/45/60 40/44/59 46/50/65 
f 27/27/32 21/21/113 23/23/33 
s 2
f 24/24/27 22/22/26 62/72/114 
s 1
f 16/16/105 67/77/115 43/47/62 
s 2
f 15/15/17 20/20/116 67/77/117 16/16/18 
s 1
f 36/40/94 24/24/96 63/73/98 61/71/95 
f 61/71/95 63/73/98 65/75/100 55/59/74 
f 65/75/100 56/60/103 54/58/73 55/59/74 
s 2
f 60/69/89 59/70/93 52/56/71 51/55/70 
f 50/54/69 10/10/13 9/9/90 51/55/70 
s 8
f 4/4/118 8/8/119 37/41/120 
f 38/42/121 37/41/120 8/8/119 7/7/122 
s 4
f 43/47/123 20/20/124 19/19/125 
f 43/47/123 19/19/125 33/36/126 44/48/127 
s 16
f 11/78/128 12/79/128 68/80/128 
s 8
f 31/33/129 38/42/121 7/7/122 11/11/130 
s 16
f 33/81/128 32/82/128 69/83/128 
f 69/83/128 32/82/128 31/84/128 
f 44/85/128 33/81/128 69/83/128 68/80/128 
f 68/80/128 69/83/128 31/84/128 11/78/128 
f 12/79/128 47/86/128 68/80/128 
s 1
f 20/20/22 15/15/35 17/17/19 
s 4
f 43/47/123 67/77/131 20/20/124 
s 2
f 54/58/88 56/60/132 57/61/91 
f 59/70/93 60/69/89 57/61/91 
f 49/53/68 48/52/67 50/54/69 53/57/72 
s 8
f 49/64/83 45/66/85 44/87/133 47/88/134 
s 16
f 68/80/128 47/86/128 44/85/128 
s 2
f 10/10/13 50/54/69 48/52/67 
f 10/10/13 48/52/67 12/12/14 
f 4/4/49 37/41/53 35/39/50 
# 49 polygons - 36 triangles

