# 3ds Max Wavefront OBJ Exporter v0.97b - (c)2007 guruware
# File Created: 16.02.2016 15:00:25

#
# object LP_S_Rock2_05
#

v  18.0367 10.3884 -2.1656
v  22.3700 17.2164 -0.1403
v  22.9502 15.9024 1.2196
v  20.7289 17.2626 -2.2224
v  15.4874 17.2246 -3.1570
v  15.5521 17.1697 -1.7544
v  15.7654 16.4133 -0.0949
v  2.7187 19.2731 -3.7280
v  -0.7301 17.2062 -0.4611
v  9.3955 16.9082 -0.7610
v  9.4050 18.1186 -2.9160
v  4.8206 12.7841 3.3504
v  13.0431 11.5689 3.8011
v  -0.8884 8.6381 6.4395
v  8.8084 7.1338 6.7211
v  18.0082 8.5734 3.8702
v  20.8905 11.2473 0.4197
v  18.6926 10.4802 4.8099
v  -3.0487 17.0129 -3.4650
v  -3.0749 16.5369 -5.5552
v  -7.3816 14.3676 -5.3846
v  -8.1638 14.4004 -3.0333
v  -13.9815 9.9415 -4.8119
v  -13.3673 10.1725 -3.1551
v  -4.4497 14.6931 2.5398
v  -8.5671 12.5370 2.4953
v  -13.1419 9.1042 2.9161
v  -7.4215 12.1268 4.9471
v  -14.5119 5.1918 6.7634
v  -16.5193 2.3637 7.3173
v  -6.5262 3.6621 7.6920
v  -11.2280 9.0530 5.9962
v  1.8400 3.3363 8.3308
v  -17.8259 3.9473 3.5663
v  15.9011 5.7622 2.8617
v  12.0432 4.1787 7.7858
v  -18.7210 5.1210 -0.3417
v  -18.7184 5.7462 -3.8142
v  15.4314 5.2766 -3.4036
v  -12.8227 9.0921 -5.8368
v  19.4972 16.0757 -3.7704
v  17.5839 12.0861 -4.9518
v  16.2782 16.3338 -4.4298
v  -12.6691 4.4151 -7.3443
v  -7.1773 4.7989 -8.5740
v  -9.2919 2.8509 -8.3734
v  -2.8718 9.0097 -9.0449
v  -0.3766 3.7960 -6.9432
v  3.3291 18.8661 -5.6145
v  3.6223 17.3482 -7.0224
v  -1.4692 15.2880 -6.8035
v  1.2973 13.1837 -8.7730
v  8.5294 17.9888 -4.5890
v  6.8887 17.2623 -6.2426
v  -6.2623 13.3485 -6.5975
v  8.1583 8.4115 -6.8270
v  -17.7426 0.0000 7.9274
v  -9.2217 0.0000 8.3945
v  10.7735 0.0000 3.5841
v  8.3940 0.0000 8.5076
v  -20.6120 0.0000 4.2321
v  -22.4124 0.0000 0.2569
v  -22.9502 0.0000 -3.3156
v  11.7525 0.0000 -2.6813
v  -12.3761 0.0000 -8.1554
v  -16.8974 0.0000 -6.8718
v  -4.2307 0.0000 -6.2979
v  -1.4104 0.0000 9.0449
# 68 vertices

vn 0.7935 -0.2725 -0.5442
vn 0.7449 -0.2952 -0.5983
vn 0.7339 -0.2718 -0.6225
vn -0.0148 0.9993 0.0346
vn 0.0779 0.9967 0.0215
vn 0.0532 0.9979 0.0360
vn -0.0149 0.9993 0.0339
vn -0.0483 0.7924 0.6080
vn -0.0732 0.6588 0.7487
vn -0.0842 0.7305 0.6777
vn -0.0234 0.9039 0.4272
vn 0.0486 0.8315 0.5534
vn 0.0626 0.7355 0.6746
vn 0.0298 0.7975 0.6026
vn 0.0696 0.8696 0.4888
vn 0.0448 0.6127 0.7891
vn -0.0066 0.5864 0.8100
vn 0.0160 0.4294 0.9030
vn 0.0292 0.4410 0.8970
vn 0.7592 -0.5592 0.3330
vn 0.8158 -0.5179 0.2574
vn 0.8313 -0.4357 0.3451
vn 0.8028 -0.4694 0.3677
vn -0.0238 0.5459 0.8375
vn -0.3950 0.8955 -0.2051
vn -0.3953 0.8967 -0.1993
vn -0.5182 0.8386 -0.1679
vn -0.5534 0.8096 -0.1954
vn -0.6041 0.7887 0.1140
vn -0.6071 0.7852 0.1221
vn -0.3731 0.8988 0.2301
vn -0.3484 0.9135 0.2101
vn -0.3922 0.8900 0.2327
vn -0.4310 0.8621 0.2664
vn -0.5157 0.8249 0.2316
vn -0.5184 0.8065 0.2842
vn -0.6178 0.7300 0.2923
vn -0.4831 0.7985 0.3593
vn 0.0917 0.6231 0.7767
vn -0.0664 0.2410 0.9683
vn -0.0712 0.2713 0.9599
vn -0.0552 0.2560 0.9651
vn -0.0455 0.2822 0.9583
vn 0.0072 0.2562 0.9666
vn 0.0414 0.4575 0.8883
vn -0.5878 0.7126 0.3829
vn -0.6918 0.6009 0.4005
vn -0.6554 0.6160 0.4371
vn 0.7368 -0.6549 0.1680
vn 0.7185 -0.5886 0.3706
vn 0.0392 0.3192 0.9469
vn -0.6793 0.5445 0.4920
vn -0.7210 0.6576 0.2187
vn -0.7114 0.6918 0.1238
vn 0.6898 -0.1843 -0.7002
vn 0.7660 -0.6421 0.0308
vn 0.8075 -0.2867 -0.5154
vn -0.4471 0.2627 -0.8550
vn -0.4345 0.3880 -0.8128
vn -0.3746 0.3396 -0.8628
vn 0.7820 -0.3107 -0.5403
vn 0.8542 -0.3322 -0.3999
vn 0.8770 -0.3336 -0.3458
vn 0.2113 0.1829 -0.9601
vn 0.2528 0.0146 -0.9674
vn 0.2241 0.1973 -0.9544
vn 0.1227 0.7656 -0.6315
vn 0.1729 0.8542 -0.4904
vn 0.1690 0.8391 -0.5170
vn 0.1121 0.7435 -0.6593
vn -0.3150 0.2386 -0.9186
vn -0.2676 0.2101 -0.9403
vn -0.2230 0.1521 -0.9629
vn 0.1815 -0.2486 -0.9515
vn 0.1949 -0.3304 -0.9235
vn 0.1819 -0.2931 -0.9386
vn -0.3594 0.8814 -0.3065
vn -0.3544 0.8911 -0.2834
vn -0.2392 0.6135 -0.7526
vn -0.2426 0.5119 -0.8241
vn -0.2521 0.5320 -0.8083
vn -0.2379 0.6354 -0.7346
vn -0.2322 0.4842 -0.8436
vn -0.2405 0.4332 -0.8686
vn 0.2024 0.7978 -0.5679
vn 0.1568 0.8393 -0.5206
vn 0.2338 0.7144 -0.6595
vn 0.2505 0.6840 -0.6852
vn -0.2733 0.3265 -0.9048
vn -0.2774 0.2783 -0.9196
vn 0.2000 -0.3077 -0.9302
vn 0.2089 0.0055 -0.9779
vn 0.2305 0.2649 -0.9363
vn 0.2136 0.2867 -0.9339
vn 0.1741 0.9711 -0.1633
vn 0.1543 0.9775 -0.1437
vn 0.1927 0.9702 -0.1470
vn 0.1917 0.9696 -0.1522
vn 0.2662 -0.3180 -0.9099
vn 0.2319 -0.2490 -0.9403
vn -0.3404 0.5248 -0.7802
vn -0.3653 0.5152 -0.7753
vn -0.0672 0.2676 0.9612
vn -0.0583 0.2330 0.9707
vn 0.7600 -0.6035 0.2413
vn 0.0443 0.1395 0.9892
vn -0.7189 0.5626 0.4083
vn -0.6871 0.4933 0.5335
vn -0.7768 0.5880 0.2257
vn -0.7979 0.5916 0.1159
vn 0.8217 -0.5553 0.1284
vn -0.2499 0.1589 -0.9552
vn -0.4223 0.3134 -0.8506
vn 0.1945 -0.3420 -0.9194
vn 0.2121 -0.3005 -0.9299
vn 0.2308 -0.3014 -0.9252
vn -0.0454 0.2512 0.9669
vn -0.4570 0.3003 -0.8372
vn 0.0000 -1.0000 -0.0000
vn 0.7337 -0.5795 0.3546
# 120 vertex normals

vt 1.2378 4.5943 0.0000
vt 1.2334 4.3768 0.0000
vt 1.2849 4.3849 0.0000
vt 1.1757 4.4148 0.0000
vt 1.0375 4.4092 0.0000
vt 1.0491 4.3710 0.0000
vt 1.0698 4.3238 0.0000
vt 1.2611 4.3388 0.0000
vt 0.7031 4.3384 0.0000
vt 0.6494 4.2177 0.0000
vt 0.9031 4.2984 0.0000
vt 0.8818 4.3607 0.0000
vt 0.8353 4.1174 0.0000
vt 1.0494 4.1443 0.0000
vt 0.7310 3.9466 0.0000
vt 0.9825 3.9777 0.0000
vt 1.4181 4.5857 0.0000
vt 1.3031 4.5166 0.0000
vt 1.4302 4.5283 0.0000
vt 1.2013 4.1474 0.0000
vt 0.5582 4.2627 0.0000
vt 0.5263 4.3084 0.0000
vt 0.4116 4.2307 0.0000
vt 0.4335 4.1709 0.0000
vt 0.2542 4.0799 0.0000
vt 0.2934 4.0572 0.0000
vt 0.5897 4.0954 0.0000
vt 0.4910 4.0320 0.0000
vt 0.3874 3.9287 0.0000
vt 0.5440 3.9912 0.0000
vt 0.4038 3.7820 0.0000
vt 0.3629 3.7035 0.0000
vt 0.6173 3.7822 0.0000
vt 0.4696 3.8922 0.0000
vt 0.8331 3.8257 0.0000
vt 0.2805 3.7835 0.0000
vt 1.4202 4.6813 0.0000
vt 1.5830 4.7285 0.0000
vt 1.0853 3.9213 0.0000
vt 0.2071 3.8662 0.0000
vt 0.1505 3.9405 0.0000
vt 1.2679 4.7469 0.0000
vt 0.1116 4.7476 0.0000
vt 0.2396 4.6371 0.0000
vt 0.2771 4.6639 0.0000
vt 1.1403 4.4641 0.0000
vt 1.1523 4.5890 0.0000
vt 1.0869 4.5697 0.0000
vt 1.0518 4.4554 0.0000
vt 0.2930 4.7925 0.0000
vt 0.4392 4.7801 0.0000
vt 0.3862 4.8328 0.0000
vt 0.5465 4.6675 0.0000
vt 0.6230 4.8074 0.0000
vt 0.7001 4.3894 0.0000
vt 0.7089 4.4424 0.0000
vt 0.5721 4.4909 0.0000
vt 0.5258 4.4496 0.0000
vt 0.6495 4.5578 0.0000
vt 0.8478 4.3978 0.0000
vt 0.7985 4.4377 0.0000
vt 0.4469 4.5464 0.0000
vt 1.0473 4.7603 0.0000
vt 0.8397 4.6744 0.0000
vt 0.4101 4.5117 0.0000
vt 0.3393 3.6374 0.0000
vt 0.5673 3.6722 0.0000
vt 1.5032 4.8662 0.0000
vt 1.0216 3.7869 0.0000
vt 0.2151 3.6754 0.0000
vt 0.1101 3.7313 0.0000
vt 0.0339 3.7900 0.0000
vt 1.3396 4.9023 0.0000
vt 0.3079 4.9102 0.0000
vt 0.1841 4.9108 0.0000
vt 0.5286 4.9142 0.0000
vt 0.9595 4.9061 0.0000
vt 0.7720 3.7177 0.0000
vt 0.0000 4.8989 0.0000
vt 5.7327 1.1475 0.0000
vt 5.5166 1.1192 0.0000
vt 5.6104 0.7252 0.0000
vt 5.8329 0.7166 0.0000
vt 5.9165 0.8056 0.0000
vt 5.9730 0.9045 0.0000
vt 5.8471 1.1032 0.0000
vt 5.0924 1.0642 0.0000
vt 5.4058 0.7274 0.0000
vt 5.1026 0.8990 0.0000
vt 5.1524 0.7653 0.0000
vt 5.9957 0.9960 0.0000
vt 1.6466 4.8608 0.0000
# 92 texture coords

g LP_S_Rock2_05
s 1
f 1/1/1 2/2/2 3/3/3 
s 2
f 4/4/4 5/5/5 6/6/6 2/2/7 
s 4
f 7/7/8 3/8/9 2/2/10 6/6/11 
f 8/9/12 9/10/13 10/11/14 11/12/15 
f 12/13/16 13/14/17 7/7/8 10/11/14 
f 12/13/16 14/15/18 15/16/19 13/14/17 
s 2
f 16/17/20 17/18/21 3/3/22 18/19/23 
s 4
f 13/14/17 18/20/24 3/8/9 7/7/8 
s 8
f 19/21/25 20/22/26 21/23/27 22/24/28 
f 21/23/27 23/25/29 24/26/30 22/24/28 
s 1
f 9/10/31 8/9/32 19/21/33 
f 25/27/34 9/10/31 19/21/33 
f 22/24/35 26/28/36 25/27/34 19/21/33 
f 24/26/30 27/29/37 26/28/36 22/24/35 
f 26/28/36 28/30/38 25/27/34 
s 4
f 12/13/16 10/11/14 9/10/13 25/27/39 
f 29/31/40 30/32/41 31/33/42 
f 31/33/42 14/15/18 32/34/43 29/31/40 
f 14/15/18 31/33/42 33/35/44 15/16/19 
f 25/27/39 28/30/45 14/15/18 12/13/16 
f 14/15/18 28/30/45 32/34/43 
s 1
f 32/34/46 28/30/38 26/28/36 27/29/37 
f 27/29/37 34/36/47 29/31/48 32/34/46 
s 2
f 35/37/49 16/17/20 36/38/50 
s 4
f 18/20/24 13/14/17 15/16/19 36/39/51 
f 33/35/44 36/39/51 15/16/19 
s 1
f 29/31/48 34/36/47 30/32/52 
f 37/40/53 34/36/47 27/29/37 24/26/30 
f 24/26/30 38/41/54 37/40/53 
f 3/3/3 17/18/55 1/1/1 
s 2
f 35/37/49 39/42/56 17/18/21 16/17/20 
s 1
f 1/1/1 17/18/55 39/42/57 
s 36
f 38/43/58 23/44/59 40/45/60 
s 1
f 4/4/61 2/2/2 1/1/1 
f 41/46/62 4/4/61 1/1/1 
f 1/1/1 42/47/63 41/46/62 
f 1/1/1 39/42/57 42/47/63 
s 8
f 41/46/64 42/48/65 43/49/66 
s 16
f 41/46/67 43/49/68 5/5/69 4/4/70 
s 4
f 44/50/71 40/45/60 45/51/72 46/52/73 
s 8
f 47/53/74 48/54/75 45/51/76 
f 19/21/25 8/9/77 49/55/78 20/22/26 
s 32
f 50/56/79 51/57/80 20/58/81 49/55/82 
s 4
f 50/56/83 52/59/84 51/57/83 
s 16
f 53/60/85 54/61/86 50/56/87 49/55/88 
s 4
f 40/45/60 55/62/89 47/53/90 45/51/72 
s 8
f 48/54/75 46/52/91 45/51/76 
s 2
f 16/17/20 18/19/23 36/38/50 
s 8
f 52/59/92 50/56/93 54/61/94 
s 4
f 6/6/11 11/12/15 10/11/14 7/7/8 
s 2
f 5/5/5 53/60/95 11/12/96 6/6/6 
s 16
f 5/5/69 43/49/68 54/61/86 53/60/85 
s 8
f 43/49/66 42/48/65 52/59/92 54/61/94 
s 2
f 53/60/95 49/55/97 8/9/98 11/12/96 
s 8
f 39/63/99 48/54/75 56/64/100 
f 48/54/75 47/53/74 56/64/100 
f 52/59/92 42/48/65 56/64/100 
f 42/48/65 39/63/99 56/64/100 
f 47/53/74 52/59/92 56/64/100 
s 4
f 52/59/84 47/53/90 55/62/89 51/57/83 
s 32
f 55/62/101 21/65/102 20/58/81 51/57/80 
f 21/65/102 55/62/101 40/45/60 23/44/59 
s 9
f 38/41/54 24/26/30 23/25/29 
s 4
f 44/50/71 38/43/58 40/45/60 
f 31/33/42 30/32/41 57/66/103 58/67/104 
s 2
f 35/37/49 36/38/50 59/68/105 
s 4
f 36/39/51 33/35/44 60/69/106 
s 1
f 30/32/52 34/36/47 61/70/107 57/66/108 
f 34/36/47 37/40/53 62/71/109 61/70/107 
f 37/40/53 38/41/54 63/72/110 62/71/109 
s 2
f 39/42/56 35/37/49 59/68/105 64/73/111 
s 4
f 44/50/71 46/52/73 65/74/112 66/75/113 
s 8
f 46/52/91 48/54/75 67/76/114 65/74/115 
f 48/54/75 39/63/99 64/77/116 67/76/114 
s 4
f 33/35/44 31/33/42 58/67/104 68/78/117 
f 38/43/58 44/50/71 63/79/118 
s 16
f 65/80/119 67/81/119 58/82/119 57/83/119 
f 61/84/119 62/85/119 66/86/119 
f 61/84/119 66/86/119 65/80/119 57/83/119 
f 67/81/119 64/87/119 68/88/119 58/82/119 
f 64/87/119 59/89/119 60/90/119 68/88/119 
f 62/85/119 63/91/119 66/86/119 
s 4
f 44/50/71 66/75/113 63/79/118 
f 33/35/44 68/78/117 60/69/106 
s 2
f 36/38/50 60/92/120 59/68/105 
# 47 polygons - 38 triangles

