# 3ds Max Wavefront OBJ Exporter v0.97b - (c)2007 guruware
# File Created: 16.02.2016 15:00:24

#
# object LP_S_Rock2_15
#

v  -10.2744 3.9097 -6.2249
v  -10.4773 7.5744 -2.8690
v  -6.1789 10.3184 -5.2272
v  -5.9382 4.9325 -9.9519
v  -0.2958 13.1663 -8.8519
v  -0.8762 9.3348 -11.7587
v  3.3655 13.2573 -12.8093
v  -1.2807 11.9260 -3.0153
v  3.3212 14.3947 -6.4050
v  9.2841 14.6788 -10.9690
v  -10.5887 5.5945 3.2144
v  -14.5091 4.2370 0.1619
v  -16.4390 0.0000 2.4479
v  -13.1143 0.0000 5.0461
v  -15.0220 0.0523 -1.0719
v  -6.0555 8.8978 0.5621
v  -3.5186 6.5001 7.5123
v  11.5820 13.9703 2.3020
v  13.3166 16.2845 -4.9833
v  8.3890 15.7496 -4.7438
v  7.2213 13.7714 1.3314
v  -4.9213 0.0000 10.1724
v  0.5799 2.8976 12.6053
v  2.5891 6.9254 11.4357
v  5.9694 6.7429 12.7060
v  5.5117 3.9078 14.0639
v  7.5716 5.4228 -10.5612
v  7.4089 9.0883 -13.9410
v  8.2694 13.5595 -14.0639
v  -0.1006 -0.0523 -12.0041
v  9.5189 3.7485 -7.6530
v  13.0286 4.8421 7.4577
v  9.9541 0.0000 12.2071
v  10.9691 0.0000 3.4546
v  9.9421 8.9768 8.4244
v  12.8699 12.4397 1.9192
v  8.7741 10.4206 8.4915
v  7.3365 5.5321 12.9018
v  14.8427 14.7770 -6.5062
v  16.4390 9.9404 -4.6235
v  15.2603 7.7443 1.9495
v  10.5875 0.0000 -3.6295
v  5.0039 10.3280 6.6616
v  2.5164 0.0000 11.1897
v  -2.0264 0.0262 1.1914
# 45 vertices

vn -0.6954 0.4421 -0.5665
vn -0.6912 0.4668 -0.5516
vn -0.6321 0.5029 -0.5895
vn -0.6346 0.4935 -0.5948
vn -0.6219 0.5309 -0.5756
vn -0.6276 0.5186 -0.5807
vn -0.6294 0.5279 -0.5702
vn -0.3822 0.9149 0.1299
vn -0.3992 0.8949 0.1994
vn -0.3596 0.9071 0.2187
vn -0.3472 0.9170 0.1965
vn -0.1785 0.9632 -0.2009
vn -0.2102 0.9623 -0.1724
vn -0.1944 0.9643 -0.1798
vn -0.1570 0.9641 -0.2143
vn -0.5288 0.4794 0.7004
vn -0.6179 0.5723 0.5391
vn -0.5775 0.5174 0.6315
vn -0.5112 0.4670 0.7215
vn -0.8219 0.2915 -0.4894
vn -0.8609 0.2381 -0.4497
vn -0.9065 0.2178 -0.3617
vn -0.3935 0.8619 0.3197
vn -0.4592 0.8480 0.2647
vn -0.4754 0.8397 0.2623
vn -0.4393 0.8458 0.3026
vn -0.3430 0.8406 0.4193
vn -0.1189 0.9251 0.3605
vn -0.0900 0.9552 0.2820
vn -0.2025 0.9432 0.2633
vn -0.2311 0.9090 0.3470
vn -0.5074 0.4355 0.7435
vn -0.4836 0.4632 0.7427
vn -0.3993 0.4218 0.8140
vn -0.5110 0.4177 0.7513
vn -0.3216 0.4287 0.8443
vn -0.3368 0.4504 0.8269
vn 0.9504 -0.1882 -0.2478
vn 0.9492 -0.1896 -0.2513
vn 0.9510 -0.1874 -0.2458
vn 0.9515 -0.1868 -0.2444
vn -0.2524 0.0140 -0.9675
vn -0.2525 0.0178 -0.9674
vn -0.2490 0.0213 -0.9683
vn -0.1344 0.9451 -0.2978
vn -0.2789 0.0048 -0.9603
vn -0.2949 0.0006 -0.9555
vn -0.3339 -0.0029 -0.9426
vn 0.5626 -0.4615 -0.6859
vn 0.5178 -0.5563 -0.6500
vn 0.5232 -0.5650 -0.6380
vn 0.5950 -0.4809 -0.6440
vn 0.8801 -0.4626 0.1067
vn 0.8821 -0.4598 0.1023
vn 0.8784 -0.4765 0.0385
vn 0.6531 0.4118 0.6355
vn 0.7775 0.4571 0.4319
vn 0.7285 0.5043 0.4638
vn 0.6058 0.4599 0.6493
vn 0.3924 0.2013 0.8975
vn 0.6345 0.2402 0.7346
vn 0.4911 0.3512 0.7971
vn 0.6074 -0.1318 -0.7834
vn 0.6242 -0.0958 -0.7754
vn 0.6357 -0.2354 -0.7352
vn 0.3519 0.8172 -0.4563
vn 0.6862 0.3652 0.6291
vn 0.7962 0.4186 0.4369
vn 0.8559 0.4152 0.3083
vn 0.8351 0.4476 0.3197
vn 0.8026 0.4975 0.3291
vn 0.8665 -0.4979 -0.0346
vn 0.8610 -0.5084 -0.0155
vn 0.8699 -0.4930 0.0124
vn 0.5947 -0.5034 -0.6269
vn -0.1539 0.9698 -0.1890
vn -0.1149 0.9761 -0.1844
vn -0.2903 0.8492 0.4411
vn -0.2703 0.8309 0.4863
vn -0.1745 0.7965 0.5789
vn -0.2148 0.8507 0.4798
vn -0.5603 -0.3318 -0.7589
vn -0.5620 -0.3494 -0.7497
vn -0.5610 -0.3392 -0.7551
vn -0.5599 -0.3276 -0.7611
vn -0.1149 -0.5299 0.8402
vn -0.1254 -0.5237 0.8427
vn -0.1267 -0.5124 0.8493
vn 0.0012 -1.0000 -0.0048
vn -0.0012 -1.0000 0.0058
vn -0.0009 -1.0000 0.0007
vn 0.0009 -1.0000 -0.0026
vn 0.0019 -1.0000 -0.0072
vn 0.0088 -0.9999 -0.0113
vn 0.3646 0.5021 0.7842
vn -0.0006 -1.0000 -0.0016
vn -0.0014 -1.0000 -0.0005
vn 0.0000 -1.0000 -0.0000
vn -0.1307 -0.5044 0.8535
vn -0.1175 -0.4982 0.8591
vn -0.0010 -1.0000 0.0028
# 101 vertex normals

vt 2.2259 2.9165 0.0000
vt 2.1877 2.7923 0.0000
vt 2.3341 2.7430 0.0000
vt 2.3720 2.9287 0.0000
vt 2.5298 2.7303 0.0000
vt 2.5295 2.8534 0.0000
vt 2.6558 2.7770 0.0000
vt 2.4248 2.6233 0.0000
vt 2.5874 2.6325 0.0000
vt 2.7839 2.6727 0.0000
vt 2.0914 2.6021 0.0000
vt 2.0250 2.7182 0.0000
vt 1.8940 2.6774 0.0000
vt 1.9277 2.5711 0.0000
vt 2.0371 2.8535 0.0000
vt 2.0241 2.9703 0.0000
vt 1.9298 2.9378 0.0000
vt 2.2524 2.6061 0.0000
vt 2.1846 2.7408 0.0000
vt 2.1937 2.4119 0.0000
vt 2.6490 2.3282 0.0000
vt 2.8000 2.4721 0.0000
vt 2.6866 2.5329 0.0000
vt 2.5679 2.4121 0.0000
vt 2.0232 2.3338 0.0000
vt 2.1580 2.2227 0.0000
vt 2.2757 2.2420 0.0000
vt 2.3204 2.1596 0.0000
vt 2.2440 2.1171 0.0000
vt 3.0109 2.7830 0.0000
vt 2.8847 2.8163 0.0000
vt 2.7819 2.7698 0.0000
vt 2.7495 2.8958 0.0000
vt 2.4960 3.0977 0.0000
vt 3.1329 3.0034 0.0000
vt 3.0878 2.7139 0.0000
vt 3.3213 2.3544 0.0000
vt 3.5158 2.3652 0.0000
vt 3.3497 2.5250 0.0000
vt 2.9737 2.0890 0.0000
vt 2.9084 2.2851 0.0000
vt 2.8576 2.2661 0.0000
vt 2.9266 2.0769 0.0000
vt 3.0578 1.8734 0.0000
vt 3.1950 1.9622 0.0000
vt 3.0360 1.9398 0.0000
vt 2.8532 2.5062 0.0000
vt 2.9889 2.4780 0.0000
vt 3.1033 2.1348 0.0000
vt 3.0465 2.2989 0.0000
vt 3.2262 2.6634 0.0000
vt 3.1534 2.3960 0.0000
vt 2.4207 2.3187 0.0000
vt 2.4751 2.2230 0.0000
vt 2.1772 1.9688 0.0000
vt 2.0963 2.1482 0.0000
vt 3.7481 3.0888 0.0000
vt 3.2697 3.0160 0.0000
vt 3.5490 2.8069 0.0000
vt 3.7684 2.6939 0.0000
vt 3.8257 2.9402 0.0000
vt 3.8393 3.0497 0.0000
vt 2.9910 1.9253 0.0000
vt 3.6494 2.5377 0.0000
vt 3.3499 2.5250 0.0000
vt 3.5303 2.3815 0.0000
# 66 texture coords

g LP_S_Rock2_15
s 1
f 1/1/1 2/2/2 3/3/3 4/4/4 
f 3/3/3 5/5/5 6/6/6 4/4/4 
f 5/5/5 7/7/7 6/6/6 
s 2
f 5/5/8 3/3/9 8/8/10 9/9/11 
s 8
f 7/7/12 5/5/13 9/9/14 10/10/15 
s 4
f 11/11/16 12/12/17 13/13/18 14/14/19 
s 1
f 12/15/20 15/16/21 13/17/22 
s 2
f 16/18/23 2/19/24 12/12/25 11/11/26 
f 16/18/23 11/11/26 17/20/27 
s 1
f 15/16/21 12/15/20 1/1/1 
s 2
f 16/18/23 8/8/10 3/3/9 2/19/24 
f 18/21/28 19/22/29 20/23/30 21/24/31 
s 4
f 22/25/32 23/26/33 24/27/34 17/20/35 
f 25/28/36 24/27/34 23/26/33 26/29/37 
f 11/11/16 14/14/19 22/25/32 17/20/35 
s 1
f 27/30/38 28/31/39 29/32/40 10/10/41 
s 4
f 28/33/42 7/7/43 29/32/44 
s 8
f 29/32/45 7/7/12 10/10/15 
s 4
f 6/6/46 7/7/43 28/33/42 30/34/47 
f 4/4/48 6/6/46 30/34/47 
s 2
f 27/30/49 30/35/50 28/31/51 
f 27/30/49 31/36/52 30/35/50 
s 8
f 32/37/53 33/38/54 34/39/55 
s 1
f 35/40/56 36/41/57 18/42/58 37/43/59 
f 26/44/60 33/45/61 38/46/62 
s 2
f 10/10/63 39/47/64 40/48/65 27/30/49 
s 4
f 39/47/66 10/10/66 19/22/66 
s 2
f 31/36/52 27/30/49 40/48/65 
s 1
f 35/40/56 32/49/67 41/50/68 36/41/57 
f 40/48/69 39/47/70 36/41/57 41/50/68 
f 19/22/71 18/42/58 36/41/57 39/47/70 
s 8
f 42/51/72 40/48/73 41/52/74 34/39/55 
f 41/52/74 32/37/53 34/39/55 
s 2
f 31/36/52 40/48/65 42/51/75 
s 8
f 20/23/76 19/22/77 10/10/15 
s 2
f 16/18/23 43/53/78 21/24/31 8/8/10 
f 16/18/23 17/20/27 43/53/78 
f 24/27/79 25/28/80 37/54/81 43/53/78 
f 37/54/81 18/21/28 21/24/31 43/53/78 
f 17/20/27 24/27/79 43/53/78 
f 8/8/10 21/24/31 20/23/30 9/9/11 
s 8
f 9/9/14 20/23/76 10/10/15 
s 2
f 31/36/52 42/51/75 30/35/50 
s 8
f 1/1/82 4/4/83 30/34/84 15/16/85 
s 2
f 33/55/86 26/29/87 44/56/88 
s 16
f 15/57/89 30/58/90 45/59/91 
f 45/59/91 22/60/92 14/61/93 15/57/89 
f 15/57/89 14/61/93 13/62/94 
s 1
f 12/15/20 2/2/2 1/1/1 
f 35/40/56 37/43/59 25/63/95 38/46/62 
f 33/45/61 32/49/67 35/40/56 38/46/62 
s 16
f 45/59/91 44/64/96 22/60/92 
s 1
f 26/44/60 38/46/62 25/63/95 
s 16
f 34/65/97 33/66/98 44/64/96 45/59/91 
s 2
f 23/26/99 22/25/100 44/56/88 
f 26/29/87 23/26/99 44/56/88 
s 16
f 45/59/91 30/58/90 42/51/101 34/39/97 
# 29 polygons - 28 triangles

