# 3ds Max Wavefront OBJ Exporter v0.97b - (c)2007 guruware
# File Created: 16.02.2016 15:00:25

#
# object LP_S_Rock2_01
#

v  4.6598 14.0241 -9.4484
v  8.6768 6.9938 -7.9172
v  2.2446 11.2182 -13.3533
v  6.0337 16.5491 5.6752
v  6.7536 17.0428 3.0185
v  3.5526 21.7883 1.6202
v  1.1740 24.1281 2.5826
v  10.2609 8.2214 -1.7741
v  6.0094 15.9877 -3.2256
v  10.9915 8.8338 5.7598
v  -0.3014 23.1913 -4.3277
v  2.2260 21.0335 -3.8933
v  -0.1511 15.2342 -12.8357
v  1.2381 18.4993 -10.7574
v  -4.1719 20.6718 6.9224
v  2.3271 12.1035 9.6425
v  7.3161 5.5609 11.9234
v  10.4480 8.3977 8.2368
v  -2.8758 8.6536 12.6254
v  1.7914 2.7212 14.1183
v  -3.3385 6.1981 11.0995
v  -11.1550 18.2212 8.8763
v  -8.2803 8.4712 7.1733
v  -7.0470 22.3453 3.9132
v  -13.1517 18.5961 5.1712
v  -14.8871 15.4261 -1.4788
v  -8.8721 19.9283 -3.8452
v  -10.6795 7.7099 1.0697
v  -14.9759 10.5116 -10.5369
v  -9.0581 15.7496 -11.5076
v  -11.9906 5.8112 -7.8670
v  -1.3332 19.6675 -11.2212
v  -7.7848 10.7330 -12.9315
v  -0.8490 10.2496 -14.1966
v  -6.9580 4.8746 -13.8812
v  -11.9679 3.8205 -12.5299
v  4.1331 0.0000 -13.2381
v  10.6793 -0.0000 -7.2029
v  13.0033 -0.0007 -0.6907
v  14.9759 -0.0007 7.4558
v  14.4324 -0.0007 9.9328
v  9.9311 -0.0007 13.1340
v  3.6849 0.0000 14.5005
v  -1.8849 0.0000 9.7613
v  -5.1113 0.0000 5.7574
v  -7.1715 0.0000 1.3256
v  -9.3915 0.0000 -6.0908
v  -6.5190 0.0000 -14.0078
v  -0.5857 0.0000 -14.5005
v  -10.2725 0.0000 -13.4560
# 50 vertices

vn 0.6588 0.3111 -0.6850
vn 0.6884 0.1458 -0.7105
vn 0.6655 0.2906 -0.6875
vn 0.7760 0.5490 0.3106
vn 0.8439 0.5320 0.0695
vn 0.7621 0.6475 0.0024
vn 0.6893 0.7225 -0.0529
vn 0.9105 0.3520 -0.2171
vn 0.8328 0.4859 -0.2654
vn 0.8936 0.4430 0.0718
vn 0.6215 0.7174 -0.3148
vn 0.7169 0.6303 -0.2978
vn 0.5431 0.3496 -0.7635
vn 0.4615 0.3283 -0.8242
vn 0.8198 0.4755 -0.3192
vn 0.6496 0.6575 -0.3817
vn 0.8950 0.3304 -0.2996
vn 0.2153 0.4733 0.8542
vn 0.2694 0.4566 0.8479
vn 0.3176 0.4812 0.8171
vn 0.3081 0.5221 0.7953
vn 0.3339 0.4227 0.8425
vn 0.4299 0.4689 0.7716
vn 0.2026 0.4226 0.8834
vn 0.1954 0.3572 0.9134
vn -0.6202 -0.3168 0.7177
vn -0.6574 -0.3096 0.6870
vn -0.6561 -0.3051 0.6903
vn 0.0977 0.4352 0.8950
vn -0.7775 -0.3420 0.5278
vn -0.8052 -0.3241 0.4966
vn -0.1765 0.8344 0.5222
vn -0.4455 0.8344 0.3245
vn -0.3456 0.8422 0.4138
vn -0.6228 0.7351 -0.2680
vn -0.5435 0.8040 -0.2414
vn -0.4359 0.8857 -0.1600
vn -0.5142 0.8121 -0.2757
vn -0.8715 -0.3804 0.3096
vn -0.8535 -0.3326 0.4011
vn -0.8735 -0.3730 0.3129
vn -0.6492 0.6729 -0.3548
vn -0.5503 0.7386 -0.3894
vn -0.8783 -0.4282 0.2128
vn -0.8896 -0.4123 0.1968
vn -0.2241 0.9710 -0.0838
vn -0.3174 0.9153 -0.2477
vn -0.0913 0.8307 0.5492
vn -0.1070 0.8220 0.5593
vn 0.3356 0.4001 -0.8528
vn -0.2243 0.1858 -0.9566
vn -0.1803 0.2260 -0.9573
vn -0.1382 0.2816 -0.9495
vn -0.1606 0.2924 -0.9427
vn -0.3704 0.8344 -0.4081
vn 0.4347 0.7739 -0.4606
vn -0.1376 0.1771 -0.9745
vn -0.1744 0.0727 -0.9820
vn 0.2294 0.1095 -0.9672
vn 0.1867 0.2343 -0.9541
vn 0.2225 0.1329 -0.9658
vn -0.3164 0.1553 -0.9358
vn -0.2920 0.1187 -0.9490
vn -0.8794 -0.4394 0.1833
vn 0.8405 0.4748 0.2611
vn 0.6778 0.1124 -0.7266
vn 0.6731 0.1182 -0.7301
vn 0.9210 0.3061 -0.2410
vn 0.9061 0.4227 0.0173
vn 0.9173 0.2508 -0.3092
vn 0.5261 0.4057 0.7474
vn 0.4094 0.3709 0.8336
vn 0.2055 0.2749 0.9392
vn -0.6659 -0.3272 0.6704
vn -0.6128 -0.3253 0.7202
vn -0.7869 -0.3736 0.4912
vn -0.8702 -0.3714 0.3239
vn -0.9149 -0.3453 0.2090
vn -0.1097 0.0190 -0.9938
vn -0.0827 0.0274 -0.9962
vn 0.2583 0.0336 -0.9655
vn 0.2573 0.0338 -0.9657
vn -0.2160 0.0619 -0.9744
vn -0.9060 -0.4002 0.1376
vn 0.8713 0.4520 0.1912
vn -0.0000 -1.0000 -0.0000
vn -0.0000 -1.0000 0.0000
vn 0.0000 -1.0000 -0.0000
vn -0.0001 -1.0000 -0.0001
vn -0.0001 -1.0000 0.0000
vn -0.0001 -1.0000 -0.0000
# 91 vertex normals

vt 2.6097 0.3665 0.0000
vt 2.4325 0.2462 0.0000
vt 2.6810 0.2446 0.0000
vt 2.3497 0.6905 0.0000
vt 2.4006 0.6383 0.0000
vt 2.5335 0.7168 0.0000
vt 2.5868 0.7993 0.0000
vt 2.3182 0.3703 0.0000
vt 2.5055 0.5078 0.0000
vt 2.1801 0.5133 0.0000
vt 2.6972 0.6405 0.0000
vt 2.6329 0.6035 0.0000
vt 2.7682 0.3398 0.0000
vt 2.7398 0.4418 0.0000
vt 2.7215 0.9630 0.0000
vt 2.5303 1.1731 0.0000
vt 2.4390 1.0107 0.0000
vt 2.3823 1.3401 0.0000
vt 2.2967 1.2208 0.0000
vt 2.6603 1.3031 0.0000
vt 2.5180 1.4469 0.0000
vt 3.3056 1.4501 0.0000
vt 3.1543 1.3148 0.0000
vt 3.2282 1.2869 0.0000
vt 2.9122 1.0550 0.0000
vt 3.1906 1.1192 0.0000
vt 2.7903 0.8885 0.0000
vt 2.9520 0.9592 0.0000
vt 3.0729 0.8176 0.0000
vt 2.9104 0.7175 0.0000
vt 3.2554 0.9527 0.0000
vt 3.2345 0.6058 0.0000
vt 3.0329 0.5365 0.0000
vt 3.3557 0.7284 0.0000
vt 2.8134 0.4666 0.0000
vt 3.1153 0.4352 0.0000
vt 2.8932 0.3570 0.0000
vt 3.0111 0.2862 0.0000
vt 3.2220 0.3252 0.0000
vt 2.9376 0.2389 0.0000
vt 3.3255 0.4199 0.0000
vt 3.4387 0.6248 0.0000
vt 2.1296 0.5578 0.0000
vt 2.5061 0.0000 0.0000
vt 2.2978 0.1113 0.0000
vt 2.1467 0.2196 0.0000
vt 1.9733 0.3581 0.0000
vt 2.1564 1.4264 0.0000
vt 2.2926 1.4773 0.0000
vt 2.4575 1.5108 0.0000
vt 3.3993 1.3108 0.0000
vt 3.3761 1.5026 0.0000
vt 3.4250 1.1724 0.0000
vt 3.4577 1.0356 0.0000
vt 3.5006 0.8274 0.0000
vt 3.3158 0.2385 0.0000
vt 3.2182 0.1145 0.0000
vt 3.1370 0.0147 0.0000
vt 3.3766 0.3185 0.0000
vt 3.5514 0.6374 0.0000
vt 1.9296 0.4087 0.0000
vt 4.8247 4.6955 0.0000
vt 5.0381 5.1841 0.0000
vt 4.9122 5.2044 0.0000
vt 4.6267 4.8171 0.0000
vt 5.2234 4.6917 0.0000
vt 5.2817 4.7229 0.0000
vt 5.3302 4.8587 0.0000
vt 5.3201 5.0253 0.0000
vt 5.1616 5.1315 0.0000
vt 5.0048 4.6834 0.0000
vt 4.7102 5.2075 0.0000
vt 4.5615 4.9266 0.0000
vt 4.5318 5.0792 0.0000
vt 4.5190 5.1773 0.0000
# 75 texture coords

g LP_S_Rock2_01
s 8
f 1/1/1 2/2/2 3/3/3 
s 2
f 4/4/4 5/5/5 6/6/6 7/7/7 
f 8/8/8 9/9/9 5/5/5 10/10/10 
f 11/11/11 7/7/7 6/6/6 12/12/12 
s 8
f 1/1/1 3/3/3 13/13/13 14/14/14 
s 2
f 12/12/12 9/9/9 1/1/15 14/14/16 
f 2/2/17 1/1/15 9/9/9 8/8/8 
s 4
f 15/15/18 16/16/19 4/17/20 7/7/21 
f 16/16/19 17/18/22 18/19/23 4/17/20 
f 16/16/19 19/20/24 20/21/25 17/18/22 
s 2
f 20/22/26 19/23/27 21/24/28 
s 4
f 19/20/24 16/16/19 15/15/18 22/25/29 
s 2
f 23/26/30 21/24/28 19/23/27 22/25/31 
s 8
f 24/27/32 25/28/33 22/25/34 
s 16
f 26/29/35 25/28/36 24/27/37 27/30/38 
s 2
f 28/31/39 23/26/30 25/28/40 26/29/41 
f 22/25/31 25/28/40 23/26/30 
s 16
f 29/32/42 26/29/35 27/30/38 30/33/43 
s 2
f 28/31/39 26/29/41 29/32/44 31/34/45 
s 16
f 24/27/37 7/7/46 11/11/47 27/30/38 
s 8
f 7/7/48 24/27/32 15/15/49 
f 14/14/14 13/13/13 32/35/50 
s 4
f 33/36/51 30/33/52 32/35/53 13/37/54 
s 16
f 32/35/55 30/33/43 27/30/38 11/11/47 
s 2
f 14/14/16 32/35/56 11/11/11 12/12/12 
s 8
f 15/15/49 24/27/32 22/25/34 
s 4
f 33/36/51 13/37/54 34/38/57 35/39/58 
s 2
f 34/38/59 13/37/60 3/40/61 
s 4
f 29/32/62 30/33/52 33/36/51 
f 36/41/63 29/32/62 33/36/51 35/39/58 
s 2
f 29/32/44 36/42/64 31/34/45 
f 9/9/9 12/12/12 6/6/6 5/5/5 
f 4/4/4 18/43/65 10/10/10 5/5/5 
s 8
f 37/44/66 3/3/3 2/2/2 38/45/67 
s 2
f 39/46/68 8/8/8 10/10/10 40/47/69 
f 38/45/70 2/2/17 8/8/8 39/46/68 
s 4
f 41/48/71 18/19/23 17/18/22 42/49/72 
f 42/49/72 17/18/22 20/21/25 43/50/73 
s 2
f 20/22/26 21/24/28 44/51/74 43/52/75 
f 44/51/74 21/24/28 23/26/30 45/53/76 
f 45/53/76 23/26/30 28/31/39 46/54/77 
f 46/54/77 28/31/39 31/34/45 47/55/78 
s 4
f 48/56/79 35/39/58 34/38/57 49/57/80 
s 2
f 3/40/61 37/58/81 49/57/82 34/38/59 
s 4
f 50/59/83 36/41/63 35/39/58 48/56/79 
s 2
f 31/34/45 36/42/64 50/60/84 47/55/78 
f 40/47/69 10/10/10 18/43/65 41/61/85 
s 1
f 38/62/86 45/63/87 46/64/87 37/65/86 
f 40/66/86 41/67/88 42/68/89 43/69/90 
f 40/66/86 43/69/90 44/70/87 39/71/91 
f 39/71/91 44/70/87 45/63/87 38/62/86 
f 47/72/88 49/73/88 37/65/86 46/64/87 
f 47/72/88 48/74/88 49/73/88 
f 47/72/88 50/75/88 48/74/88 
# 42 polygons - 12 triangles

