# 3ds Max Wavefront OBJ Exporter v0.97b - (c)2007 guruware
# File Created: 16.02.2016 15:00:27

#
# object LP_S_Rock2_14
#

v  15.8457 8.7056 -4.4627
v  8.6126 8.6888 -4.0279
v  8.1045 9.6026 -1.7933
v  11.6505 9.5076 -1.7153
v  2.7502 8.9366 -1.9123
v  2.9993 -0.0000 5.9024
v  9.3730 5.0943 3.8358
v  -10.2860 -0.0000 3.4701
v  -4.8924 -0.0000 3.8857
v  -4.8694 7.0299 -1.7380
v  -13.1485 3.6496 -0.9839
v  11.4931 -0.0000 2.6542
v  15.3611 -0.0000 -1.4382
v  6.6487 -0.0000 7.5511
v  -19.4564 -0.0000 -3.1312
v  -11.2686 3.2797 -3.5725
v  -14.3044 -0.0000 -4.4950
v  1.8280 8.0195 -3.6861
v  -5.7245 5.9546 -3.6002
v  19.4564 -0.0000 -6.0089
v  18.1538 4.1151 -5.9421
v  15.6017 -0.0000 -7.5511
v  9.2511 4.4335 -5.9537
v  4.0334 -0.0000 -7.0422
v  -5.2105 3.3873 -5.0732
v  1.9448 4.4890 -5.5622
v  -6.1563 -0.0000 -5.8930
# 27 vertices

vn 0.0008 0.9486 -0.3165
vn -0.0595 0.9186 -0.3908
vn -0.0627 0.9251 -0.3744
vn 0.0312 0.9713 -0.2359
vn -0.1671 0.6799 0.7141
vn -0.2394 0.6409 0.7294
vn -0.2003 0.6928 0.6928
vn -0.0572 0.7729 0.6319
vn -0.2360 0.6198 0.7484
vn -0.1323 0.6195 0.7738
vn -0.1567 0.6453 0.7477
vn -0.3920 0.5720 0.7206
vn 0.7374 0.2127 0.6411
vn 0.7141 0.1380 0.6863
vn 0.7182 0.2258 0.6582
vn 0.6704 0.2817 0.6865
vn 0.6353 0.2217 0.7398
vn 0.7047 0.1316 0.6972
vn -0.3083 0.6627 0.6825
vn -0.5157 0.4699 0.7164
vn -0.4061 0.7503 -0.5216
vn -0.4680 0.7613 -0.4487
vn -0.2960 0.7093 -0.6398
vn -0.1799 0.7110 -0.6798
vn -0.1926 0.9068 -0.3750
vn -0.3396 0.8695 -0.3588
vn -0.2941 0.8820 -0.3682
vn -0.1519 0.9089 -0.3884
vn 0.7266 0.2194 0.6510
vn 0.7448 0.1936 0.6386
vn 0.1158 0.2768 -0.9539
vn 0.1192 0.2799 -0.9526
vn 0.3682 0.1315 -0.9204
vn -0.0410 0.3485 -0.9364
vn -0.0686 0.2810 -0.9573
vn -0.1550 0.3712 -0.9155
vn -0.1769 0.4629 -0.8686
vn -0.0932 0.4535 -0.8864
vn -0.0871 0.3765 -0.9223
vn -0.0084 0.3411 -0.9400
vn -0.0717 0.4023 -0.9127
vn -0.1988 0.3796 -0.9035
vn -0.2223 0.4496 -0.8651
vn -0.1388 0.2700 -0.9528
vn 0.0072 0.7813 0.6241
vn 0.0000 -1.0000 -0.0000
# 46 vertex normals

vt 3.5455 4.8582 0.0000
vt 3.7030 4.9038 0.0000
vt 3.6997 4.9559 0.0000
vt 3.6212 4.9325 0.0000
vt 3.8215 4.9792 0.0000
vt 3.7593 5.2917 0.0000
vt 3.6094 5.1121 0.0000
vt 4.1820 5.2265 0.0000
vt 4.0177 5.2593 0.0000
vt 4.0102 5.0199 0.0000
vt 4.2359 5.0624 0.0000
vt 3.4605 5.1404 0.0000
vt 3.3565 4.9673 0.0000
vt 3.6160 5.2867 0.0000
vt 4.4340 5.0414 0.0000
vt 4.2073 4.9812 0.0000
vt 4.3205 4.9464 0.0000
vt 3.8606 4.9342 0.0000
vt 4.0514 4.9690 0.0000
vt 3.3800 4.7603 0.0000
vt 3.4692 4.8002 0.0000
vt 3.5056 4.6840 0.0000
vt 3.7031 4.7884 0.0000
vt 3.8549 4.6834 0.0000
vt 4.0678 4.8875 0.0000
vt 3.8861 4.8296 0.0000
vt 4.1286 4.8141 0.0000
vt 5.3041 5.3947 0.0000
vt 5.4009 5.6064 0.0000
vt 5.1870 5.6347 0.0000
vt 5.1639 5.3784 0.0000
vt 5.5367 5.5760 0.0000
vt 4.9201 5.6544 0.0000
vt 4.9601 5.3179 0.0000
vt 4.7353 5.3941 0.0000
vt 4.8666 5.2712 0.0000
vt 4.6179 5.6561 0.0000
vt 4.6304 5.4969 0.0000
vt 4.5190 5.6120 0.0000
# 39 texture coords

g LP_S_Rock2_14
s 1
f 1/1/1 2/2/2 3/3/3 4/4/4 
s 2
f 5/5/5 6/6/6 7/7/7 3/3/8 
f 8/8/9 9/9/10 10/10/11 11/11/12 
s 4
f 7/7/13 12/12/14 13/13/15 4/4/16 
f 4/4/16 13/13/15 1/1/17 
f 7/7/13 14/14/18 12/12/14 
s 2
f 6/6/6 14/14/19 7/7/7 
f 8/8/9 11/11/12 15/15/20 
s 1
f 11/11/21 16/16/22 17/17/23 15/15/24 
f 18/18/25 19/19/26 10/10/27 5/5/28 
f 19/19/26 16/16/22 11/11/21 10/10/27 
s 4
f 13/13/15 20/20/29 21/21/30 
s 2
f 22/22/31 21/21/32 20/20/33 
f 23/23/34 21/21/32 22/22/31 24/24/35 
f 25/25/36 19/19/37 18/18/38 26/26/39 
s 4
f 13/13/15 21/21/30 1/1/17 
s 2
f 1/1/40 21/21/32 23/23/34 2/2/41 
f 17/17/42 16/16/43 25/25/36 27/27/44 
f 19/19/37 25/25/36 16/16/43 
f 6/6/6 5/5/5 10/10/11 9/9/10 
f 26/26/39 24/24/35 27/27/44 25/25/36 
f 7/7/7 4/4/45 3/3/8 
s 1
f 2/2/2 18/18/25 5/5/28 3/3/3 
s 2
f 18/18/38 2/2/41 23/23/34 26/26/39 
f 26/26/39 23/23/34 24/24/35 
s 8
f 8/28/46 17/29/46 27/30/46 9/31/46 
f 8/28/46 15/32/46 17/29/46 
f 24/33/46 6/34/46 9/31/46 27/30/46 
f 24/33/46 12/35/46 6/34/46 
f 12/35/46 14/36/46 6/34/46 
f 22/37/46 13/38/46 12/35/46 24/33/46 
f 22/37/46 20/39/46 13/38/46 
# 18 polygons - 14 triangles

