# 3ds Max Wavefront OBJ Exporter v0.97b - (c)2007 guruware
# File Created: 16.02.2016 15:00:26

#
# object LP_S_Rock2_07
#

v  9.4086 -0.0000 -8.9211
v  4.2398 -0.0000 -7.9815
v  11.9330 4.8319 -7.7679
v  16.7051 6.6115 -6.3739
v  18.0638 -0.0000 -6.4391
v  22.7266 7.5763 -1.7130
v  20.3861 -0.0000 -3.3012
v  22.3663 6.7988 3.3570
v  19.7169 -0.0000 2.8356
v  -13.2229 5.4584 -0.5074
v  -17.8366 5.2705 1.7634
v  -9.1170 9.7092 5.1722
v  -5.9191 9.0984 2.0754
v  -25.0334 -0.0000 -1.1260
v  -13.6887 -0.0000 -3.4466
v  -16.1419 -0.0000 2.5424
v  -9.6963 -0.0000 5.0732
v  -9.7379 4.9014 4.9822
v  24.7519 11.2881 5.2327
v  24.1240 9.9860 1.2400
v  10.9818 11.1434 3.6601
v  15.3176 12.2542 8.6034
v  22.2616 6.4761 8.9211
v  25.0334 11.7603 8.7908
v  8.1578 6.3132 8.1382
v  19.1400 -0.0000 8.9158
v  4.8843 9.1454 -0.0083
v  2.3839 11.4444 5.4960
v  -3.3258 6.8596 7.4369
v  -0.1437 11.8758 8.0182
v  -5.0753 -0.0000 6.6416
v  2.9448 -0.0000 7.3864
v  20.6126 8.4985 -3.0747
v  -1.1309 6.0503 -3.5707
v  -3.7831 -0.0000 -6.0431
# 35 vertices

vn -0.0164 0.2402 -0.9706
vn -0.1699 0.3119 -0.9348
vn 0.1900 0.1221 -0.9742
vn 0.4578 0.1028 -0.8831
vn 0.3996 0.0989 -0.9113
vn 0.7977 -0.1227 -0.5904
vn 0.9173 -0.3972 0.0280
vn 0.9034 -0.4287 0.0099
vn 0.9337 -0.3494 0.0785
vn 0.9441 -0.3132 0.1030
vn -0.2455 0.6990 -0.6717
vn -0.3002 0.7828 -0.5451
vn -0.2169 0.8905 -0.4000
vn -0.1675 0.8728 -0.4584
vn -0.2369 0.5992 -0.7648
vn -0.2058 0.4735 -0.8564
vn -0.3730 0.0160 0.9277
vn -0.3742 0.0154 0.9272
vn -0.3813 0.0140 0.9243
vn -0.3433 0.0145 0.9391
vn -0.3581 0.0075 0.9336
vn -0.3547 0.0293 0.9345
vn 0.8837 -0.4680 -0.0017
vn 0.8762 -0.4820 0.0019
vn 0.0359 0.9732 -0.2271
vn 0.0234 0.9454 -0.3250
vn -0.0195 0.9481 -0.3175
vn 0.0131 0.9767 -0.2140
vn -0.0559 0.0442 0.9975
vn -0.0452 0.0203 0.9988
vn -0.0607 -0.0358 0.9975
vn 0.0529 0.9894 -0.1355
vn -0.0656 0.0088 0.9978
vn -0.0741 0.8680 -0.4909
vn -0.0618 0.9513 -0.3021
vn -0.2218 -0.0115 0.9750
vn -0.1279 -0.0214 0.9916
vn -0.1002 0.9592 -0.2644
vn -0.2386 -0.0410 0.9703
vn -0.0798 -0.0657 0.9946
vn -0.0252 -0.0478 0.9985
vn 0.5985 0.2090 -0.7733
vn 0.6092 0.3355 -0.7185
vn -0.1767 0.6648 -0.7258
vn -0.0983 0.8888 -0.4476
vn -0.1505 0.7201 -0.6774
vn -0.2311 0.4308 -0.8723
vn -0.2196 0.4500 -0.8656
vn 0.6140 0.4438 -0.6527
vn -0.0248 0.9202 -0.3907
vn 0.8854 -0.4647 -0.0084
vn 0.8934 -0.4491 -0.0089
vn 0.9170 -0.3959 0.0480
vn 0.0000 -1.0000 -0.0000
# 54 vertex normals

vt 4.6907 1.8734 0.0000
vt 4.8364 1.9100 0.0000
vt 4.6140 1.9955 0.0000
vt 4.4852 2.0389 0.0000
vt 4.4408 1.8735 0.0000
vt 4.3018 2.1053 0.0000
vt 4.3384 1.8933 0.0000
vt 4.2276 2.1100 0.0000
vt 4.1454 2.2175 0.0000
vt 3.9826 2.1165 0.0000
vt 4.0632 1.9758 0.0000
vt 5.2508 2.2553 0.0000
vt 5.3685 2.3233 0.0000
vt 5.1127 2.4395 0.0000
vt 5.0440 2.3315 0.0000
vt 5.5902 2.2155 0.0000
vt 5.3079 2.1003 0.0000
vt 5.3419 2.6731 0.0000
vt 5.3718 2.5287 0.0000
vt 5.5919 2.6396 0.0000
vt 5.1608 2.7043 0.0000
vt 5.1466 2.5730 0.0000
vt 4.2358 2.3225 0.0000
vt 4.2576 2.2126 0.0000
vt 4.5969 2.3089 0.0000
vt 4.4705 2.4257 0.0000
vt 4.2865 2.5671 0.0000
vt 4.2161 2.4183 0.0000
vt 4.6568 2.5805 0.0000
vt 4.3685 2.7432 0.0000
vt 4.7725 2.2248 0.0000
vt 4.8113 2.3836 0.0000
vt 4.9601 2.5589 0.0000
vt 4.8650 2.4489 0.0000
vt 5.0242 2.7294 0.0000
vt 4.8009 2.7422 0.0000
vt 4.3692 2.1130 0.0000
vt 4.9470 2.1313 0.0000
vt 5.0553 1.9837 0.0000
vt 4.0703 2.3446 0.0000
vt 3.9031 2.2558 0.0000
vt 2.1948 5.9989 0.0000
vt 2.3185 5.5581 0.0000
vt 2.3264 5.9605 0.0000
vt 2.6529 5.5840 0.0000
vt 2.8270 5.6322 0.0000
vt 2.7795 5.7943 0.0000
vt 3.0677 5.7034 0.0000
vt 2.5287 5.5558 0.0000
vt 2.5295 5.8885 0.0000
vt 1.9634 5.9579 0.0000
vt 1.8947 5.8827 0.0000
vt 1.8954 5.7216 0.0000
vt 1.8940 5.5622 0.0000
# 54 texture coords

g LP_S_Rock2_07
s 4
f 1/1/1 2/2/2 3/3/3 
f 3/3/3 4/4/4 5/5/5 1/1/1 
s 1
f 6/6/6 7/7/6 5/5/6 
s 2
f 6/8/7 8/9/8 9/10/9 7/11/10 
s 1
f 10/12/11 11/13/12 12/14/13 13/15/14 
f 14/16/15 10/12/11 15/17/16 
s 4
f 16/18/17 11/19/18 14/20/19 
f 17/21/20 18/22/21 16/18/17 
f 11/19/18 16/18/17 18/22/21 12/14/22 
s 2
f 19/23/23 8/9/8 20/24/24 
s 1
f 19/23/25 20/24/26 21/25/27 22/26/28 
s 4
f 23/27/29 24/28/30 25/29/31 
s 1
f 22/26/28 24/28/32 19/23/25 
s 4
f 25/29/31 26/30/33 23/27/29 
s 1
f 27/31/34 28/32/35 21/25/27 
s 4
f 29/33/36 30/34/37 12/14/22 18/22/21 
s 1
f 28/32/35 13/15/14 12/14/13 30/34/38 
s 4
f 31/35/39 29/33/36 18/22/21 17/21/20 
f 29/33/36 31/35/39 32/36/40 25/29/31 
f 25/29/31 22/26/41 30/34/37 29/33/36 
s 1
f 22/26/28 21/25/27 28/32/35 30/34/38 
s 4
f 33/37/42 6/6/43 5/5/5 4/4/4 
s 1
f 34/38/44 4/4/45 3/3/46 
f 2/2/47 35/39/48 34/38/44 3/3/46 
f 13/15/14 27/31/34 34/38/44 10/12/11 
f 15/17/16 10/12/11 34/38/44 35/39/48 
s 2
f 6/8/7 20/24/24 8/9/8 
s 4
f 33/37/42 20/24/49 6/6/43 
s 1
f 21/25/27 20/24/26 33/37/50 27/31/34 
f 14/16/15 11/13/12 10/12/11 
s 2
f 19/23/23 24/28/51 23/40/52 8/9/8 
f 8/9/8 23/40/52 26/41/53 9/10/9 
s 1
f 34/38/44 27/31/34 33/37/50 4/4/45 
s 8
f 1/42/54 32/43/54 2/44/54 
f 17/45/54 16/46/54 15/47/54 
f 16/46/54 14/48/54 15/47/54 
f 31/49/54 35/50/54 2/44/54 32/43/54 
f 31/49/54 17/45/54 15/47/54 35/50/54 
s 1
f 27/31/34 13/15/14 28/32/35 
s 8
f 5/51/54 7/52/54 32/43/54 
f 7/52/54 9/53/54 32/43/54 
f 1/42/54 5/51/54 32/43/54 
f 9/53/54 26/54/54 32/43/54 
s 4
f 25/29/31 32/36/40 26/30/33 
f 24/28/30 22/26/41 25/29/31 
# 21 polygons - 24 triangles

