# 3ds Max Wavefront OBJ Exporter v0.97b - (c)2007 guruware
# File Created: 16.02.2016 15:00:25

#
# object LP_S_Rock2_02
#

v  -2.3628 3.5339 1.3839
v  0.9541 0.0000 3.4659
v  6.7107 0.0000 1.8274
v  3.7917 2.8310 0.1552
v  -7.7939 3.3201 1.3017
v  -8.3517 0.0000 3.7641
v  -3.9463 0.0000 4.0468
v  -7.0893 0.0000 -3.7298
v  -6.9838 4.2447 -1.9774
v  -0.6869 3.9924 -2.4930
v  2.2976 0.0000 -4.0468
v  5.7050 2.2590 -2.7749
v  9.9602 0.0000 -0.8196
v  10.6783 0.0000 -3.1910
v  -10.6783 0.0000 -0.5828
v  -9.9920 0.0000 1.7304
v  -9.4196 0.0000 -2.6204
# 17 vertices

vn 0.0772 0.8466 0.5266
vn 0.1758 0.6169 0.7671
vn 0.3537 0.7164 0.6014
vn 0.2904 0.8785 0.3794
vn -0.0452 0.8045 0.5922
vn -0.0512 0.6005 0.7980
vn 0.0106 0.5947 0.8039
vn -0.2212 0.3689 -0.9028
vn -0.1517 0.3804 -0.9123
vn -0.0137 0.3667 -0.9302
vn 0.0436 0.3817 -0.9233
vn 0.1345 0.9825 0.1293
vn 0.3737 0.9254 0.0634
vn 0.0868 0.3861 -0.9184
vn 0.4358 0.8697 0.2319
vn 0.0941 0.3769 -0.9215
vn 0.4271 0.8961 0.1209
vn -0.0067 0.9764 0.2157
vn -0.7637 0.6200 0.1801
vn -0.8047 0.5869 -0.0896
vn -0.7494 0.5447 0.3764
vn -0.4014 0.3580 -0.8430
vn -0.6685 0.5122 0.5392
vn -0.7398 0.4938 -0.4570
vn -0.7693 0.6227 -0.1429
vn 0.0000 -1.0000 -0.0000
# 26 vertex normals

vt 5.3533 1.3317 0.0000
vt 5.4557 1.2433 0.0000
vt 5.6036 1.3025 0.0000
vt 5.5114 1.3703 0.0000
vt 5.2133 1.3220 0.0000
vt 5.2080 1.2113 0.0000
vt 5.3254 1.2151 0.0000
vt 5.2296 1.5332 0.0000
vt 5.2309 1.4130 0.0000
vt 5.3922 1.4300 0.0000
vt 5.4776 1.5297 0.0000
vt 5.5641 1.4497 0.0000
vt 5.6889 1.3737 0.0000
vt 5.6963 1.5064 0.0000
vt 5.7117 1.4368 0.0000
vt 5.0924 1.3542 0.0000
vt 5.1125 1.2950 0.0000
vt 5.1634 1.5226 0.0000
vt 5.1466 1.2363 0.0000
vt 5.1027 1.4157 0.0000
vt 0.1988 5.6309 0.0000
vt 0.0049 5.5854 0.0000
vt 0.1641 5.4786 0.0000
vt 0.0997 5.3902 0.0000
vt 0.1935 5.8738 0.0000
vt 0.0257 5.8927 0.0000
vt 0.0000 5.8304 0.0000
vt 0.2071 5.7594 0.0000
vt 0.1382 5.9137 0.0000
vt 0.0389 5.3682 0.0000
vt 0.0770 5.9284 0.0000
# 31 texture coords

g LP_S_Rock2_02
s 1
f 1/1/1 2/2/2 3/3/3 4/4/4 
f 5/5/5 6/6/6 7/7/7 1/1/1 
f 1/1/1 7/7/7 2/2/2 
s 2
f 8/8/8 9/9/9 10/10/10 11/11/11 
s 1
f 10/10/12 1/1/1 4/4/4 
f 4/4/4 12/12/13 10/10/12 
s 2
f 12/12/14 11/11/11 10/10/10 
s 1
f 3/3/3 13/13/15 4/4/4 
s 2
f 14/14/16 11/11/11 12/12/14 
s 1
f 12/12/13 4/4/4 14/15/17 
f 9/9/18 5/5/5 1/1/1 10/10/12 
s 4
f 5/5/19 15/16/20 16/17/21 
s 2
f 8/8/8 17/18/22 9/9/9 
s 4
f 5/5/19 16/17/21 6/19/23 
f 17/20/24 15/16/20 9/9/25 
s 8
f 2/21/26 11/22/26 3/23/26 
f 11/22/26 13/24/26 3/23/26 
f 6/25/26 17/26/26 8/27/26 7/28/26 
f 7/28/26 8/27/26 11/22/26 2/21/26 
f 6/25/26 16/29/26 17/26/26 
f 11/22/26 14/30/26 13/24/26 
s 1
f 4/4/4 13/13/15 14/15/17 
s 4
f 5/5/19 9/9/25 15/16/20 
s 8
f 16/29/26 15/31/26 17/26/26 
# 6 polygons - 18 triangles

