# 3ds Max Wavefront OBJ Exporter v0.97b - (c)2007 guruware
# File Created: 16.02.2016 15:00:26

#
# object LP_S_Rock2_08
#

v  -15.3712 6.7654 -9.7890
v  -15.8562 0.0000 -12.0998
v  -17.0222 0.0000 -9.5757
v  4.2610 10.7119 -7.6763
v  11.1058 8.8737 -9.7979
v  8.9709 6.8523 -11.5330
v  -9.8597 9.2826 -8.5388
v  -3.9247 13.3627 -4.3851
v  -1.6202 5.7932 -11.8030
v  -10.9367 3.2265 -12.0836
v  -17.5084 0.0000 -6.3351
v  -15.5992 8.0247 -6.6093
v  -15.0655 9.2441 -2.8649
v  -16.8043 0.0000 -2.5609
v  -14.0421 10.7151 -6.8330
v  -12.1978 13.8301 -3.6065
v  -15.3759 0.0000 3.2637
v  -13.7050 0.0000 7.8695
v  -11.4424 11.0166 7.6425
v  -13.2087 10.7425 2.2387
v  -9.1293 16.5586 0.3835
v  -8.1197 15.7502 7.8291
v  -6.0952 18.8987 4.7086
v  1.3774 16.9055 0.7661
v  -3.1358 18.5195 9.4443
v  8.2312 13.4573 -4.1022
v  8.4800 13.3072 6.7770
v  12.8778 11.0798 0.9171
v  -7.6519 7.8676 11.9518
v  -3.6797 12.2756 12.1944
v  0.8871 16.6795 11.8280
v  4.4336 15.3154 10.2895
v  -11.2382 0.0000 10.8803
v  1.0740 0.0000 5.2776
v  2.4031 2.5926 5.3558
v  -3.6298 5.3263 9.1041
v  -6.9347 0.0000 9.0791
v  5.4867 8.0471 6.1424
v  10.4650 5.9984 -0.0332
v  0.6221 10.3638 9.6550
v  8.2559 0.0000 -1.1986
v  11.3961 0.0000 -6.4643
v  14.1286 4.4971 -5.9138
v  12.7124 10.8062 -7.1908
v  13.3119 6.3498 -9.2895
v  17.5084 8.0930 -6.0635
v  15.4577 4.0113 -9.5922
v  12.8740 0.0000 -12.1944
v  10.6499 4.3566 -11.8124
v  -8.1686 0.0000 -12.1870
v  -1.1544 0.0000 -12.1895
v  -11.0588 0.0000 -1.5527
v  4.1280 0.0000 -8.0685
v  -3.5473 0.0000 -3.4547
# 54 vertices

vn -0.9368 0.2785 -0.2115
vn -0.8887 0.2039 -0.4105
vn -0.9369 0.2201 -0.2717
vn -0.0125 0.7361 -0.6768
vn -0.0054 0.7471 -0.6647
vn -0.0468 0.6769 -0.7346
vn -0.0567 0.6573 -0.7515
vn -0.0143 0.7842 -0.6204
vn -0.0426 0.6305 -0.7750
vn -0.1415 0.4076 -0.9021
vn -0.2130 0.3295 -0.9198
vn -0.1325 0.4924 -0.8602
vn -0.9764 0.2158 0.0046
vn -0.9278 0.3611 -0.0938
vn -0.9188 0.3749 0.1234
vn -0.9602 0.1874 0.2070
vn -0.0616 0.6818 -0.7290
vn -0.8169 0.5655 0.1134
vn -0.8587 0.5059 -0.0815
vn -0.0171 0.7665 -0.6420
vn -0.9371 0.1996 0.2865
vn -0.9218 0.1962 0.3344
vn -0.8699 0.4257 0.2493
vn -0.8735 0.4236 0.2400
vn -0.7739 0.6054 0.1859
vn -0.7214 0.6481 0.2442
vn -0.6638 0.6966 0.2722
vn 0.3941 0.9191 -0.0005
vn 0.2259 0.9721 -0.0633
vn 0.3300 0.9440 -0.0040
vn -0.0006 0.8356 -0.5493
vn -0.0081 0.8456 -0.5338
vn -0.0121 0.8830 -0.4693
vn 0.0175 0.7912 -0.6113
vn 0.4503 0.8929 0.0024
vn 0.4717 0.8816 -0.0176
vn 0.4674 0.8839 -0.0140
vn -0.5407 0.7415 0.3973
vn -0.5915 0.2810 0.7557
vn -0.6124 0.2983 0.7321
vn -0.4562 0.3893 0.8002
vn -0.4988 0.3556 0.7904
vn -0.3219 0.4050 0.8558
vn -0.4014 0.3982 0.8248
vn 0.3847 0.9223 0.0359
vn 0.4059 0.9136 0.0223
vn -0.7231 0.2158 0.6562
vn -0.7475 0.2573 0.6124
vn 0.5073 -0.2899 0.8115
vn 0.5117 -0.3440 0.7873
vn 0.3992 -0.3243 0.8576
vn 0.3998 -0.2760 0.8741
vn 0.5213 -0.3942 0.7569
vn 0.6697 -0.4130 0.6172
vn 0.6437 -0.4281 0.6344
vn 0.5397 -0.4195 0.7299
vn 0.3801 -0.3778 0.8442
vn 0.3723 -0.3943 0.8402
vn 0.3140 -0.3206 0.8936
vn 0.3593 -0.3438 0.8676
vn 0.3806 -0.3310 0.8635
vn 0.3697 -0.2888 0.8832
vn 0.6861 -0.4105 0.6007
vn 0.7858 -0.5187 0.3369
vn 0.7113 -0.5622 0.4218
vn 0.5086 0.4219 -0.7505
vn 0.4655 0.4187 -0.7797
vn 0.5443 0.3628 -0.7564
vn 0.4208 0.4474 -0.7892
vn 0.4088 0.4165 -0.8121
vn 0.6847 -0.6483 0.3330
vn 0.6655 -0.5570 0.4969
vn 0.4990 0.8657 -0.0394
vn 0.4945 0.8683 -0.0394
vn 0.0265 0.7880 -0.6151
vn 0.7715 -0.5801 0.2613
vn 0.4305 0.3419 -0.8353
vn 0.4184 0.2891 -0.8610
vn 0.3718 0.3466 -0.8612
vn 0.0053 0.0446 -0.9990
vn -0.0113 0.0223 -0.9997
vn 0.0001 0.0321 -0.9995
vn -0.0035 0.0956 -0.9954
vn -0.0004 0.0872 -0.9962
vn 0.0055 0.0724 -0.9974
vn -0.0012 0.0971 -0.9953
vn 0.0125 0.0643 -0.9979
vn 0.0000 -1.0000 -0.0000
# 88 vertex normals

vt 4.8001 0.0932 0.0000
vt 4.9635 0.0002 0.0000
vt 4.9817 0.0708 0.0000
vt 3.9901 0.6033 0.0000
vt 3.8514 0.7361 0.0000
vt 3.8131 0.6610 0.0000
vt 4.1123 0.2555 0.0000
vt 4.1859 0.4611 0.0000
vt 3.9051 0.3990 0.0000
vt 3.9543 0.1530 0.0000
vt 3.9401 0.0000 0.0000
vt 4.1051 0.0936 0.0000
vt 4.9985 0.1555 0.0000
vt 4.7837 0.1809 0.0000
vt 4.7646 0.2812 0.0000
vt 5.0100 0.2565 0.0000
vt 4.2126 0.1810 0.0000
vt 4.6217 0.2885 0.0000
vt 4.7023 0.1870 0.0000
vt 4.3039 0.2793 0.0000
vt 5.0237 0.4153 0.0000
vt 5.0287 0.5472 0.0000
vt 4.7374 0.5679 0.0000
vt 4.7348 0.4223 0.0000
vt 4.5403 0.4199 0.0000
vt 4.5982 0.6099 0.0000
vt 4.4702 0.5643 0.0000
vt 4.2597 0.6572 0.0000
vt 4.5010 0.7141 0.0000
vt 4.3866 0.4162 0.0000
vt 4.0434 0.7433 0.0000
vt 4.2526 0.9105 0.0000
vt 4.0616 0.9255 0.0000
vt 4.8034 0.7244 0.0000
vt 4.6551 0.7907 0.0000
vt 4.4901 0.8518 0.0000
vt 4.3900 0.8829 0.0000
vt 5.0234 0.6511 0.0000
vt 4.2823 1.2966 0.0000
vt 4.2748 1.2213 0.0000
vt 4.4772 1.2026 0.0000
vt 4.5077 1.3636 0.0000
vt 4.2646 1.0605 0.0000
vt 4.0485 1.0691 0.0000
vt 4.4329 1.0365 0.0000
vt 4.5725 1.0174 0.0000
vt 4.6207 1.1718 0.0000
vt 4.6245 1.4013 0.0000
vt 4.0299 1.2364 0.0000
vt 3.8656 1.2057 0.0000
vt 3.8614 1.0653 0.0000
vt 3.9038 0.8060 0.0000
vt 3.7797 0.7862 0.0000
vt 3.8285 0.9327 0.0000
vt 3.7064 0.8215 0.0000
vt 3.7582 1.0702 0.0000
vt 3.7102 1.2045 0.0000
vt 3.7402 0.6814 0.0000
vt 3.6152 0.6983 0.0000
vt 3.8453 0.1797 0.0000
vt 3.7605 0.3491 0.0000
vt 4.5807 4.2202 0.0000
vt 4.4124 4.0954 0.0000
vt 4.4251 4.0109 0.0000
vt 4.8392 3.9426 0.0000
vt 5.2053 3.9425 0.0000
vt 4.9770 4.0502 0.0000
vt 4.7767 4.1706 0.0000
vt 4.6561 3.9427 0.0000
vt 4.4555 3.9450 0.0000
vt 5.1667 4.0921 0.0000
vt 5.0848 4.2295 0.0000
vt 4.8973 4.3985 0.0000
vt 4.6883 4.4977 0.0000
vt 4.5760 4.5447 0.0000
vt 4.5116 4.4661 0.0000
vt 4.4680 4.3459 0.0000
vt 4.4307 4.1939 0.0000
# 78 texture coords

g LP_S_Rock2_08
s 1
f 1/1/1 2/2/2 3/3/3 
s 8
f 4/4/4 5/5/5 6/6/6 
f 7/7/7 8/8/8 4/4/4 9/9/9 
f 9/9/9 4/4/4 6/6/6 
f 10/10/10 2/11/11 1/12/12 
f 1/12/12 7/7/7 9/9/9 10/10/10 
s 1
f 11/13/13 12/14/14 1/1/1 3/3/3 
f 13/15/15 12/14/14 11/13/13 14/16/16 
s 8
f 15/17/17 7/7/7 1/12/12 
s 1
f 13/15/15 16/18/18 15/19/19 12/14/14 
s 8
f 15/17/17 16/20/20 8/8/8 7/7/7 
s 1
f 17/21/21 18/22/22 19/23/23 20/24/24 
f 21/25/25 20/24/24 19/23/23 22/26/26 
f 22/26/26 23/27/27 21/25/25 
s 2
f 24/28/28 23/27/29 25/29/30 
s 8
f 24/28/31 8/8/8 21/30/32 23/27/33 
f 8/8/8 24/28/31 26/31/34 4/4/4 
s 1
f 17/21/21 20/24/24 13/15/15 14/16/16 
s 2
f 24/28/28 27/32/35 28/33/36 26/31/37 
s 1
f 23/27/27 22/26/26 25/29/38 
s 4
f 19/23/39 29/34/40 30/35/41 22/26/42 
f 30/35/41 31/36/43 25/29/44 22/26/42 
s 2
f 31/36/45 32/37/46 24/28/28 25/29/30 
s 4
f 18/22/47 33/38/48 29/34/40 19/23/39 
s 1
f 34/39/49 35/40/50 36/41/51 37/42/52 
f 38/43/53 39/44/54 28/33/55 27/32/56 
s 2
f 32/37/46 27/32/35 24/28/28 
s 1
f 40/45/57 38/43/53 27/32/56 32/37/58 
f 31/36/59 30/46/60 40/45/57 32/37/58 
f 37/42/52 36/41/51 29/47/61 33/48/62 
f 29/47/61 36/41/51 40/45/57 30/46/60 
f 41/49/63 42/50/64 43/51/65 39/44/54 
s 4
f 44/52/66 45/53/67 5/5/68 
f 45/53/67 46/54/69 47/55/70 
s 1
f 47/56/71 46/54/72 43/51/65 
f 20/24/24 21/25/25 16/18/18 13/15/15 
f 12/14/14 15/19/19 1/1/1 
s 2
f 28/33/36 46/54/73 44/52/74 26/31/37 
s 8
f 26/31/34 44/52/75 4/4/4 
f 8/8/8 16/20/20 21/30/32 
s 1
f 43/51/65 42/50/64 48/57/76 47/56/71 
s 4
f 49/58/77 45/53/67 47/55/70 48/59/78 
f 49/58/77 6/6/79 5/5/68 45/53/67 
s 8
f 44/52/75 5/5/5 4/4/4 
s 1
f 38/43/53 35/40/50 41/49/63 39/44/54 
f 38/43/53 40/45/57 36/41/51 35/40/50 
f 46/54/72 28/33/55 39/44/54 43/51/65 
s 2
f 50/60/80 2/11/81 10/10/82 
f 49/58/83 48/59/84 51/61/85 
f 6/6/86 49/58/83 51/61/85 9/9/87 
f 50/60/80 10/10/82 9/9/87 51/61/85 
s 4
f 44/52/66 46/54/69 45/53/67 
s 16
f 52/62/88 11/63/88 3/64/88 
f 51/65/88 48/66/88 53/67/88 
f 51/65/88 53/67/88 54/68/88 50/69/88 
f 50/69/88 54/68/88 52/62/88 2/70/88 
f 53/67/88 42/71/88 41/72/88 
f 41/72/88 34/73/88 54/68/88 53/67/88 
f 54/68/88 34/73/88 37/74/88 52/62/88 
f 48/66/88 42/71/88 53/67/88 
f 3/64/88 2/70/88 52/62/88 
f 52/62/88 37/74/88 33/75/88 
f 52/62/88 18/76/88 17/77/88 
f 52/62/88 17/77/88 14/78/88 
s 1
f 35/40/50 34/39/49 41/49/63 
s 16
f 52/62/88 14/78/88 11/63/88 
f 52/62/88 33/75/88 18/76/88 
# 37 polygons - 30 triangles

