# 3ds Max Wavefront OBJ Exporter v0.97b - (c)2007 guruware
# File Created: 16.02.2016 15:00:26

#
# object LP_S_Rock2_10
#

v  0.4418 6.4290 1.7742
v  1.6786 4.7257 -0.1585
v  -0.8548 4.9687 -1.8891
v  -3.1511 6.7656 -0.4209
v  -4.8392 5.3393 1.6043
v  -1.6593 4.5916 3.7316
v  -8.3706 3.4988 1.6852
v  -5.4576 2.4095 4.7229
v  -6.8497 5.3596 -0.4395
v  -5.4723 6.3977 -1.9609
v  -3.9707 3.5407 -4.4944
v  -5.4724 2.5510 -3.7160
v  -8.1084 2.3714 -0.8177
v  -9.1641 2.0912 2.9836
v  1.9543 2.9255 -2.3111
v  4.3063 5.0000 3.9143
v  6.3221 2.9202 2.0481
v  2.5987 2.4843 6.2684
v  8.1726 2.2673 5.9239
v  -3.4894 2.5029 -5.7810
v  -6.0600 0.0000 -4.4619
v  -9.2698 0.0000 -0.9327
v  -10.5554 0.0000 3.6961
v  -6.0420 0.0000 5.8141
v  8.8880 0.0000 1.8375
v  3.5694 0.0000 -3.4708
v  3.7681 0.0000 7.6960
v  10.5554 0.0000 7.2764
v  -3.0594 0.0000 -7.6960
# 29 vertices

vn 0.4287 0.8005 -0.4189
vn 0.4627 0.7552 -0.4643
vn 0.3393 0.7452 -0.5740
vn 0.2914 0.8004 -0.5239
vn -0.1259 0.8006 0.5858
vn -0.2614 0.8812 0.3940
vn -0.3028 0.8130 0.4973
vn -0.1596 0.7236 0.6715
vn -0.3666 0.7501 0.5504
vn -0.2801 0.5868 0.7598
vn -0.3740 0.8524 0.3654
vn 0.2396 0.7428 -0.6251
vn 0.1686 0.7653 -0.6212
vn -0.7527 0.2733 -0.5990
vn -0.6185 0.4124 -0.6689
vn -0.6793 0.3547 -0.6425
vn -0.8055 0.3926 -0.4438
vn -0.7981 0.3390 -0.4981
vn -0.3403 0.8912 0.3000
vn -0.9061 0.3421 -0.2490
vn -0.3773 0.6161 0.6914
vn 0.4808 0.6225 -0.6175
vn 0.5366 0.7869 -0.3047
vn 0.6140 0.6886 -0.3858
vn -0.0615 0.5743 0.8163
vn -0.0082 0.6986 0.7155
vn 0.0727 0.5883 0.8054
vn 0.7140 0.6614 -0.2295
vn 0.3288 0.6649 -0.6707
vn -0.6552 0.4037 -0.6386
vn -0.8744 0.4273 -0.2296
vn -0.6933 0.3487 -0.6306
vn -0.8068 0.4262 -0.4091
vn -0.3905 0.4955 0.7759
vn -0.2824 0.4506 0.8469
vn 0.6831 0.6270 -0.3745
vn 0.5295 0.5487 -0.6470
vn -0.0281 0.4881 0.8724
vn 0.0647 0.5462 0.8351
vn 0.7304 0.6422 -0.2327
vn 0.4161 0.5784 -0.7017
vn -0.6764 0.3614 -0.6418
vn -0.8443 0.4818 -0.2345
vn 0.0000 -1.0000 -0.0000
# 44 vertex normals

vt 5.5895 4.2139 0.0000
vt 5.5596 4.1483 0.0000
vt 5.6326 4.1197 0.0000
vt 5.6800 4.1835 0.0000
vt 5.7168 4.2456 0.0000
vt 5.6309 4.2904 0.0000
vt 5.8127 4.2585 0.0000
vt 5.7349 4.3525 0.0000
vt 5.7658 4.1975 0.0000
vt 5.7312 4.1653 0.0000
vt 5.7346 4.0637 0.0000
vt 5.7890 4.0836 0.0000
vt 5.8430 4.1847 0.0000
vt 5.8408 4.2987 0.0000
vt 5.5580 4.0745 0.0000
vt 5.4829 4.2483 0.0000
vt 5.4217 4.1838 0.0000
vt 5.5027 4.3481 0.0000
vt 5.3563 4.2875 0.0000
vt 5.7331 4.0240 0.0000
vt 5.8441 4.0422 0.0000
vt 5.9101 4.1825 0.0000
vt 5.8970 4.3367 0.0000
vt 5.7565 4.4161 0.0000
vt 5.3268 4.1477 0.0000
vt 5.5050 4.0009 0.0000
vt 5.4565 4.4123 0.0000
vt 5.2690 4.3174 0.0000
vt 5.7391 3.9425 0.0000
vt 3.3091 2.0828 0.0000
vt 3.4530 2.3091 0.0000
vt 3.2876 2.2054 0.0000
vt 3.5352 1.9702 0.0000
vt 3.6955 2.2136 0.0000
vt 3.7266 2.0129 0.0000
vt 3.3301 1.9696 0.0000
vt 3.8393 2.1095 0.0000
vt 3.3239 2.3254 0.0000
# 38 texture coords

g LP_S_Rock2_10
s 1
f 1/1/1 2/2/2 3/3/3 4/4/4 
s 2
f 1/1/5 4/4/6 5/5/7 6/6/8 
f 7/7/9 8/8/10 5/5/7 9/9/11 
s 1
f 10/10/12 4/4/4 3/3/3 11/11/13 
s 4
f 10/10/14 11/11/15 12/12/16 
f 12/12/16 13/13/17 9/9/18 10/10/14 
s 2
f 9/9/11 5/5/7 4/4/6 10/10/19 
s 4
f 13/13/17 7/7/20 9/9/18 
s 2
f 6/6/8 5/5/7 8/8/10 
f 7/7/9 14/14/21 8/8/10 
s 1
f 3/3/3 2/2/2 15/15/22 
f 16/16/23 17/17/24 2/2/2 1/1/1 
f 2/2/2 17/17/24 15/15/22 
s 2
f 6/6/8 18/18/25 16/16/26 1/1/5 
f 8/8/10 18/18/25 6/6/8 
f 19/19/27 16/16/26 18/18/25 
s 1
f 19/19/28 17/17/24 16/16/23 
f 20/20/29 11/11/13 3/3/3 15/15/22 
s 4
f 11/11/15 20/20/30 12/12/16 
f 14/14/31 7/7/20 13/13/17 
f 13/13/17 12/12/16 21/21/32 22/22/33 
s 2
f 8/8/10 14/14/21 23/23/34 24/24/35 
s 1
f 15/15/22 17/17/24 25/25/36 26/26/37 
s 2
f 18/18/25 8/8/10 24/24/35 27/27/38 
f 19/19/27 18/18/25 28/28/39 
s 1
f 17/17/24 28/28/40 25/25/36 
f 20/20/29 15/15/22 29/29/41 
s 4
f 12/12/16 29/29/42 21/21/32 
f 14/14/31 13/13/17 22/22/33 23/23/43 
s 8
f 21/30/44 24/31/44 22/32/44 
f 26/33/44 27/34/44 24/31/44 21/30/44 
f 26/33/44 25/35/44 27/34/44 
f 21/30/44 29/36/44 26/33/44 
f 25/35/44 28/37/44 27/34/44 
s 2
f 18/18/25 27/27/38 28/28/39 
s 1
f 17/17/24 19/19/28 28/28/40 
s 8
f 24/31/44 23/38/44 22/32/44 
s 1
f 15/15/22 26/26/37 29/29/41 
s 4
f 12/12/16 20/20/30 29/29/42 
# 15 polygons - 24 triangles

